SplineFontDB: 3.0
FontName: DOF-3-Extended
FullName: DOF-3-Extended
FamilyName: DOF-3
Weight: Extended

StartChar: exclam
Encoding: 33 33 1
Width: 611
VWidth: 910
Flags: HW
LayerCount: 2
Fore
SplineSet
189 478 m 1
 189 819 l 1
 306 819 l 1
 422 819 l 1
 422 478 l 1
 422 137 l 1
 306 137 l 1
 189 137 l 1
 189 478 l 1
278 73 m 0
 338 78 404 65 419 46 c 0
 434 25 398 6 332 1 c 0
 317 0 294 0 279 1 c 0
 213 6 178 25 193 46 c 0
 203 59 237 69 278 73 c 0
EndSplineSet
EndChar

StartChar: quotedbl
Encoding: 34 34 2
Width: 627
VWidth: 910
Flags: HW
LayerCount: 2
Fore
SplineSet
34 694 m 1
 34 819 l 1
 150 819 l 1
 267 819 l 1
 267 694 l 1
 267 568 l 1
 150 568 l 1
 34 568 l 1
 34 694 l 1
360 694 m 1
 360 819 l 1
 477 819 l 1
 593 819 l 1
 593 694 l 1
 593 568 l 1
 477 568 l 1
 360 568 l 1
 360 694 l 1
EndSplineSet
EndChar

StartChar: numbersign
Encoding: 35 35 3
Width: 1238
VWidth: 910
Flags: HW
LayerCount: 2
Fore
SplineSet
409 531 m 1
 460 614 l 1
 575 614 l 1
 692 614 l 2
 692 613 669 577 642 531 c 0
 614 485 591 448 591 448 c 2
 591 447 642 447 705 447 c 2
 819 447 l 1
 869 530 l 2
 896 576 920 612 920 613 c 0
 921 614 946 614 1038 614 c 2
 1154 614 l 1
 1103 531 l 1
 1052 448 l 1
 1118 447 l 1
 1183 447 l 1
 1183 410 l 1
 1183 373 l 1
 1095 373 l 1
 1007 373 l 1
 967 308 l 1
 927 242 l 1
 992 241 l 1
 1058 241 l 1
 1058 204 l 1
 1058 167 l 1
 969 167 l 1
 882 167 l 1
 831 84 l 1
 780 0 l 1
 664 0 l 1
 547 0 l 2
 547 1 570 38 598 84 c 0
 625 130 648 167 648 167 c 2
 648 168 597 167 534 167 c 2
 420 167 l 1
 370 85 l 2
 343 39 319 2 319 1 c 0
 318 0 293 0 201 0 c 2
 85 1 l 1
 136 84 l 1
 187 167 l 1
 121 167 l 1
 56 167 l 1
 56 205 l 1
 56 241 l 1
 144 241 l 1
 232 241 l 1
 272 307 l 1
 312 373 l 1
 247 373 l 1
 181 373 l 1
 181 411 l 1
 181 447 l 1
 269 447 l 1
 358 447 l 1
 409 531 l 1
774 373 m 2
 660 373 l 1
 545 373 l 1
 544 371 l 2
 540 366 465 242 465 241 c 2
 580 241 l 1
 694 242 l 1
 734 307 l 2
 756 343 774 372 774 373 c 2
EndSplineSet
EndChar

StartChar: dollar
Encoding: 36 36 4
Width: 1097
VWidth: 910
Flags: HW
LayerCount: 2
Fore
SplineSet
467 776 m 1
 467 819 l 1
 549 819 l 1
 631 819 l 1
 631 776 l 1
 631 733 l 1
 635 733 l 2
 638 732 646 732 653 732 c 0
 680 732 735 729 770 725 c 0
 822 720 867 712 897 702 c 0
 946 686 977 660 986 626 c 0
 988 618 988 616 988 595 c 2
 988 573 l 1
 871 573 l 1
 755 573 l 1
 755 594 l 2
 755 619 753 625 748 633 c 0
 744 639 736 647 731 650 c 0
 725 654 691 656 653 658 c 2
 631 658 l 1
 631 555 l 1
 631 453 l 1
 674 452 l 2
 717 452 733 453 764 449 c 0
 837 441 892 424 928 398 c 0
 970 368 990 321 988 261 c 0
 986 215 967 176 936 151 c 0
 921 139 905 131 881 123 c 0
 826 103 747 91 652 87 c 1
 631 87 l 1
 631 44 l 1
 631 0 l 1
 549 0 l 1
 467 0 l 1
 467 43 l 1
 467 86 l 1
 462 86 l 2
 459 87 452 87 445 87 c 0
 418 87 363 90 328 94 c 0
 276 99 230 107 200 117 c 0
 151 133 121 159 112 193 c 0
 110 201 110 203 110 224 c 2
 110 246 l 1
 227 246 l 1
 343 246 l 1
 343 225 l 2
 343 200 345 195 350 187 c 0
 354 181 362 172 367 169 c 0
 373 165 407 163 445 161 c 2
 467 161 l 1
 467 264 l 1
 467 367 l 1
 421 367 l 2
 375 367 361 366 329 370 c 0
 256 378 201 395 165 421 c 0
 123 451 103 498 105 559 c 0
 108 619 137 665 190 688 c 0
 248 713 336 728 446 732 c 1
 467 732 l 1
 467 776 l 1
467 550 m 1
 467 658 l 1
 461 658 l 2
 443 657 414 655 402 652 c 0
 385 648 377 644 367 634 c 0
 353 619 345 603 340 578 c 0
 338 566 338 537 340 523 c 0
 345 494 354 475 369 460 c 0
 377 452 386 446 395 442 c 0
 400 440 401 441 424 441 c 2
 457 441 l 1
 467 441 l 1
 467 550 l 1
697 377 m 0
 692 379 690 379 673 380 c 0
 658 380 637 379 632 378 c 0
 631 378 631 328 631 269 c 2
 631 161 l 1
 641 161 l 2
 685 164 705 168 717 177 c 0
 724 182 732 191 737 200 c 0
 744 211 749 224 752 239 c 0
 754 248 754 254 754 269 c 0
 754 294 751 313 744 330 c 0
 735 352 716 371 697 377 c 0
EndSplineSet
EndChar

StartChar: percent
Encoding: 37 37 5
Width: 1363
VWidth: 910
Flags: HW
LayerCount: 2
Fore
SplineSet
310 861 m 0
 324 862 363 862 379 861 c 0
 487 856 559 828 590 781 c 0
 611 751 621 710 626 649 c 0
 629 614 628 494 625 467 c 0
 624 462 624 458 624 458 c 2
 625 458 726 539 850 638 c 2
 1075 819 l 1
 1191 819 l 1
 1308 819 l 2
 1308 818 1233 758 1141 684 c 0
 1049 610 972 550 971 548 c 2
 968 546 l 1
 973 546 l 2
 976 547 992 547 1008 548 c 0
 1105 550 1185 534 1232 505 c 0
 1256 490 1269 476 1281 451 c 0
 1297 419 1304 381 1307 323 c 0
 1308 297 1308 217 1307 190 c 0
 1304 127 1297 89 1281 55 c 0
 1268 30 1255 15 1231 0 c 0
 1196 -22 1143 -36 1075 -41 c 0
 1055 -43 1010 -43 988 -42 c 0
 877 -37 805 -9 774 38 c 0
 753 68 742 109 737 171 c 0
 734 205 735 325 738 352 c 0
 739 357 739 361 739 361 c 2
 738 361 637 280 513 181 c 2
 289 0 l 1
 172 0 l 1
 56 0 l 2
 56 1 131 61 223 135 c 0
 315 209 391 269 393 271 c 2
 396 273 l 1
 390 273 l 2
 387 272 372 272 356 271 c 0
 259 269 179 285 132 314 c 0
 108 329 95 344 83 369 c 0
 67 401 59 438 56 496 c 0
 55 522 55 602 56 629 c 0
 59 692 67 731 83 765 c 0
 96 790 109 804 133 819 c 0
 171 843 232 857 310 861 c 0
352 778 m 0
 348 781 345 784 343 785 c 2
 340 786 l 1
 334 781 l 2
 325 774 320 767 313 754 c 0
 298 724 292 687 289 626 c 0
 288 599 288 525 289 499 c 0
 292 435 301 394 320 367 c 0
 324 361 335 351 340 348 c 0
 343 346 342 346 347 350 c 0
 357 357 364 366 371 380 c 0
 385 408 391 443 394 502 c 0
 395 530 395 626 393 646 c 0
 388 714 375 757 352 778 c 0
1033 464 m 0
 1029 468 1026 470 1024 471 c 0
 1021 473 1022 474 1017 470 c 0
 1007 463 999 454 992 440 c 0
 978 412 972 376 969 317 c 0
 968 289 968 193 970 174 c 0
 975 116 984 79 1001 54 c 0
 1006 47 1015 38 1020 35 c 2
 1023 33 l 1
 1029 38 l 2
 1038 45 1043 52 1050 66 c 0
 1068 103 1075 152 1075 258 c 0
 1075 304 1074 332 1071 355 c 0
 1066 409 1053 446 1033 464 c 0
EndSplineSet
EndChar

StartChar: ampersand
Encoding: 38 38 6
Width: 1097
VWidth: 910
Flags: HW
LayerCount: 2
Fore
SplineSet
473 824 m 0
 518 826 617 825 657 822 c 0
 755 816 828 795 870 762 c 0
 907 733 925 684 925 614 c 0
 925 582 919 557 908 533 c 0
 892 498 863 472 818 450 c 0
 793 437 769 429 736 420 c 0
 693 408 650 401 568 389 c 0
 547 386 529 383 529 383 c 2
 528 383 533 377 538 370 c 0
 603 295 679 222 760 157 c 0
 782 140 783 139 783 142 c 0
 785 147 786 162 786 181 c 2
 786 202 l 1
 902 202 l 1
 1019 202 l 1
 1019 179 l 2
 1019 154 1018 146 1014 133 c 0
 1005 95 980 64 942 44 c 0
 938 42 936 40 936 40 c 1
 936 40 943 37 951 32 c 0
 988 15 1018 5 1049 1 c 0
 1050 0 997 0 931 0 c 2
 812 1 l 1
 801 3 l 1
 790 5 l 1
 772 3 l 2
 709 -3 646 -5 534 -5 c 0
 447 -4 417 -3 371 2 c 0
 268 14 192 41 157 79 c 0
 132 106 118 142 113 188 c 0
 110 205 109 239 111 252 c 0
 118 332 166 381 268 416 c 0
 269 416 265 422 259 430 c 0
 214 490 185 545 176 587 c 0
 171 609 173 656 180 684 c 0
 190 725 209 752 242 772 c 0
 291 802 367 819 473 824 c 0
603 750 m 0
 584 751 511 751 492 750 c 0
 477 749 467 747 456 742 c 0
 437 732 422 712 415 686 c 0
 407 658 404 611 409 587 c 0
 416 554 434 515 463 471 c 0
 471 457 472 456 475 457 c 0
 476 457 486 458 498 460 c 0
 592 473 627 485 657 515 c 0
 672 530 681 546 686 568 c 0
 690 582 691 589 692 606 c 0
 693 632 689 665 683 686 c 0
 676 712 661 732 643 742 c 0
 631 747 622 749 603 750 c 0
429 242 m 0
 421 249 403 267 388 282 c 0
 358 312 361 311 355 296 c 0
 350 286 348 275 345 262 c 0
 343 249 343 209 345 192 c 0
 350 147 362 118 383 98 c 0
 391 90 397 86 409 81 c 0
 423 76 436 72 461 70 c 0
 476 68 576 68 617 68 c 2
 650 69 l 1
 644 73 l 2
 634 79 603 99 588 111 c 0
 537 147 482 193 429 242 c 0
EndSplineSet
EndChar

StartChar: parenleft
Encoding: 40 40 7
Width: 423
VWidth: 910
Flags: HW
LayerCount: 2
Fore
SplineSet
124 881 m 0
 128 882 155 882 248 882 c 2
 368 882 l 1
 368 846 l 1
 368 808 l 1
 360 807 l 2
 334 803 316 777 306 728 c 0
 294 671 289 571 289 410 c 0
 289 249 294 148 306 92 c 0
 316 42 334 16 360 12 c 2
 368 11 l 1
 368 -26 l 1
 368 -63 l 1
 249 -63 l 2
 165 -63 130 -63 126 -62 c 0
 105 -57 88 -39 78 -4 c 0
 65 37 59 112 56 233 c 0
 55 289 55 530 56 586 c 0
 58 690 64 757 73 802 c 0
 83 848 99 875 124 881 c 0
EndSplineSet
EndChar

StartChar: parenright
Encoding: 41 41 8
Width: 423
VWidth: 910
Flags: HW
LayerCount: 2
Fore
SplineSet
56 846 m 1
 56 882 l 1
 174 882 l 2
 258 882 294 882 298 881 c 0
 319 876 335 858 345 823 c 0
 358 782 364 707 367 586 c 0
 368 530 368 289 367 233 c 0
 364 112 358 37 345 -4 c 0
 335 -39 319 -57 298 -62 c 0
 294 -63 258 -63 174 -63 c 2
 56 -63 l 1
 56 -26 l 1
 56 11 l 1
 63 12 l 2
 89 16 107 42 117 92 c 0
 129 148 135 249 135 410 c 0
 135 571 129 671 117 728 c 0
 107 777 89 803 63 807 c 2
 56 808 l 1
 56 846 l 1
EndSplineSet
EndChar

StartChar: asterisk
Encoding: 42 42 9
Width: 987
VWidth: 910
Flags: HW
LayerCount: 2
Fore
SplineSet
457 784 m 2
 457 819 l 1
 494 819 l 1
 531 819 l 1
 531 784 l 2
 531 764 531 748 532 748 c 2
 532 748 543 756 558 764 c 2
 583 778 l 1
 610 753 l 2
 624 738 635 726 635 726 c 1
 635 726 620 717 601 706 c 0
 582 695 566 685 566 685 c 1
 566 685 582 675 601 664 c 0
 620 653 635 644 635 644 c 1
 635 644 624 633 610 618 c 2
 583 593 l 1
 558 607 l 2
 543 616 532 623 531 623 c 2
 531 587 l 1
 531 552 l 1
 494 552 l 1
 457 552 l 1
 457 587 l 1
 457 623 l 2
 456 623 445 616 430 607 c 2
 404 593 l 1
 378 618 l 2
 364 633 352 644 352 644 c 1
 352 644 368 653 387 664 c 0
 406 675 421 685 421 685 c 1
 421 685 406 695 387 706 c 0
 368 717 352 726 352 726 c 1
 352 726 364 738 378 753 c 2
 404 778 l 1
 430 764 l 2
 445 756 456 748 456 748 c 2
 457 748 457 764 457 784 c 2
EndSplineSet
EndChar

StartChar: plus
Encoding: 43 43 10
Width: 1238
VWidth: 910
Flags: HW
LayerCount: 2
Fore
SplineSet
502 480 m 1
 502 614 l 1
 620 614 l 1
 736 614 l 1
 736 480 l 1
 736 344 l 1
 960 344 l 1
 1183 344 l 1
 1183 308 l 1
 1183 270 l 1
 960 270 l 1
 736 270 l 1
 736 136 l 1
 736 0 l 1
 620 0 l 1
 502 0 l 1
 502 136 l 1
 502 270 l 1
 279 270 l 1
 56 270 l 1
 56 308 l 1
 56 344 l 1
 279 344 l 1
 502 344 l 1
 502 480 l 1
EndSplineSet
EndChar

StartChar: comma
Encoding: 44 44 11
Width: 360
VWidth: 910
Flags: HW
LayerCount: 2
Fore
SplineSet
158 73 m 0
 168 74 196 74 207 73 c 0
 248 69 279 60 291 47 c 0
 296 42 297 40 297 19 c 0
 294 -54 277 -126 246 -194 c 0
 236 -216 232 -223 227 -227 c 0
 213 -238 188 -244 153 -249 c 0
 134 -251 101 -251 82 -249 c 0
 35 -244 4 -231 1 -215 c 0
 1 -212 1 -210 5 -203 c 0
 40 -137 61 -57 64 22 c 0
 64 42 65 44 71 49 c 0
 84 61 119 70 158 73 c 0
EndSplineSet
EndChar

StartChar: hyphen
Encoding: 45 45 12
Width: 1238
VWidth: 910
Flags: HW
LayerCount: 2
Fore
SplineSet
56 308 m 1
 56 344 l 1
 620 344 l 1
 1183 344 l 1
 1183 308 l 1
 1183 270 l 1
 620 270 l 1
 56 270 l 1
 56 308 l 1
EndSplineSet
EndChar

StartChar: period
Encoding: 46 46 13
Width: 360
VWidth: 910
Flags: HW
LayerCount: 2
Fore
SplineSet
152 73 m 0
 212 78 278 65 293 46 c 0
 308 25 273 6 207 1 c 0
 192 0 169 0 154 1 c 0
 88 6 52 25 67 46 c 0
 77 59 111 69 152 73 c 0
EndSplineSet
EndChar

StartChar: slash
Encoding: 47 47 14
Width: 861
VWidth: 910
Flags: HW
LayerCount: 2
Fore
SplineSet
316 411 m 2
 573 819 l 1
 690 819 l 1
 806 819 l 1
 806 817 l 2
 805 816 688 632 546 408 c 2
 289 0 l 1
 172 0 l 1
 56 0 l 1
 56 2 l 2
 57 3 174 187 316 411 c 2
EndSplineSet
EndChar

StartChar: zero
Encoding: 48 48 15
Width: 1097
VWidth: 910
Flags: HW
LayerCount: 2
Fore
SplineSet
492 824 m 0
 507 825 620 824 635 823 c 0
 672 821 712 816 738 811 c 0
 868 787 937 735 970 636 c 0
 982 600 987 565 991 509 c 0
 993 484 993 336 991 311 c 0
 987 255 982 219 970 183 c 0
 930 62 834 8 633 -4 c 0
 607 -6 491 -6 465 -4 c 0
 426 -2 387 3 360 8 c 0
 230 32 160 84 127 183 c 0
 115 219 110 255 106 311 c 0
 104 336 104 484 106 509 c 0
 110 565 115 600 127 636 c 0
 160 735 230 787 360 811 c 0
 395 818 432 821 492 824 c 0
613 749 m 0
 606 750 590 750 558 750 c 0
 510 751 506 751 489 749 c 0
 455 746 431 734 406 709 c 0
 385 688 371 663 360 629 c 0
 351 602 346 575 342 538 c 0
 338 505 339 488 339 410 c 0
 339 332 338 314 342 281 c 0
 346 244 351 217 360 191 c 0
 371 156 385 131 406 110 c 0
 430 85 454 74 489 70 c 0
 504 68 594 68 609 70 c 0
 644 74 668 85 693 110 c 0
 713 131 727 156 738 191 c 0
 747 217 751 244 755 281 c 0
 759 314 759 332 759 410 c 0
 759 488 759 505 755 538 c 0
 751 575 747 602 738 629 c 0
 727 663 713 688 693 709 c 0
 668 733 645 744 613 749 c 0
EndSplineSet
EndChar

StartChar: one
Encoding: 49 49 16
Width: 764
VWidth: 910
Flags: HW
LayerCount: 2
Fore
SplineSet
228 625 m 1
 421 819 l 1
 538 819 l 1
 654 819 l 1
 654 410 l 1
 654 0 l 1
 538 0 l 1
 421 0 l 1
 421 293 l 1
 421 586 l 1
 344 509 l 1
 266 431 l 1
 149 431 l 1
 34 431 l 1
 228 625 l 1
EndSplineSet
EndChar

StartChar: two
Encoding: 50 50 17
Width: 1097
VWidth: 910
Flags: HW
LayerCount: 2
Fore
SplineSet
445 824 m 0
 477 825 638 824 660 823 c 0
 716 820 754 815 794 807 c 0
 862 794 916 771 942 743 c 0
 972 709 988 662 988 600 c 0
 988 544 972 496 938 454 c 0
 911 420 869 389 813 361 c 0
 767 339 734 327 634 292 c 0
 557 267 532 257 502 244 c 0
 423 209 378 168 357 114 c 0
 353 105 348 84 347 77 c 2
 346 74 l 1
 667 74 l 1
 988 74 l 1
 988 37 l 1
 988 0 l 1
 549 0 l 1
 110 0 l 1
 110 37 l 2
 110 66 110 74 111 74 c 0
 112 74 113 77 114 82 c 0
 123 132 150 179 192 214 c 0
 217 235 248 255 286 274 c 0
 331 296 363 308 463 343 c 0
 540 368 565 378 596 391 c 0
 665 423 708 457 733 503 c 0
 754 542 760 594 750 649 c 0
 744 690 727 720 703 734 c 0
 676 749 646 752 522 751 c 0
 441 750 412 749 390 744 c 0
 379 741 375 739 368 734 c 0
 358 724 350 710 346 695 c 0
 344 689 344 685 343 663 c 2
 343 637 l 1
 227 637 l 1
 110 637 l 1
 110 664 l 2
 111 690 111 691 114 701 c 0
 120 726 136 750 157 765 c 0
 177 780 200 790 235 799 c 0
 290 813 355 821 445 824 c 0
EndSplineSet
EndChar

StartChar: three
Encoding: 51 51 18
Width: 1097
VWidth: 910
Flags: HW
LayerCount: 2
Fore
SplineSet
410 827 m 0
 430 828 518 827 534 826 c 0
 539 826 567 826 593 825 c 0
 668 824 702 821 748 816 c 0
 843 804 915 776 948 741 c 0
 978 708 993 661 993 599 c 0
 993 537 978 490 948 457 c 0
 933 441 909 426 880 414 c 0
 875 412 870 411 870 411 c 2
 870 410 874 409 879 407 c 0
 900 399 919 388 933 377 c 0
 965 352 985 311 991 257 c 0
 993 243 993 199 991 186 c 0
 985 131 965 90 933 65 c 0
 891 32 817 10 719 1 c 0
 683 -3 655 -4 593 -5 c 0
 567 -6 539 -6 533 -7 c 0
 527 -7 504 -8 482 -9 c 0
 415 -10 355 -6 289 3 c 0
 206 13 162 25 134 46 c 0
 123 54 116 64 112 75 c 0
 110 82 110 83 110 104 c 2
 110 125 l 1
 227 125 l 1
 343 125 l 1
 343 105 l 2
 343 87 343 84 345 81 c 0
 346 78 347 77 348 76 c 0
 350 75 378 70 400 68 c 0
 435 64 479 63 518 66 c 0
 528 67 547 68 566 68 c 0
 602 68 638 69 654 71 c 0
 687 75 707 82 722 97 c 0
 731 106 736 112 741 125 c 0
 749 141 755 163 758 188 c 0
 760 201 760 240 758 254 c 0
 755 279 749 301 741 317 c 0
 736 330 731 335 722 344 c 0
 707 359 687 366 654 370 c 0
 633 372 599 373 514 373 c 2
 432 373 l 1
 432 411 l 1
 432 447 l 1
 514 447 l 2
 599 447 633 448 654 450 c 0
 687 454 707 461 722 476 c 0
 727 481 732 486 734 490 c 0
 743 503 751 523 755 542 c 0
 759 562 759 573 759 599 c 0
 759 625 759 635 755 656 c 0
 751 674 743 695 734 709 c 0
 732 712 727 717 722 722 c 0
 707 737 687 744 654 748 c 0
 638 750 602 751 566 751 c 0
 547 751 528 752 518 753 c 0
 479 756 435 755 400 751 c 0
 378 749 350 745 348 744 c 0
 347 743 346 741 345 739 c 0
 343 735 343 733 343 715 c 2
 343 694 l 1
 227 694 l 1
 110 694 l 1
 110 715 l 2
 110 736 110 738 112 745 c 0
 116 756 123 765 134 773 c 0
 157 790 190 801 243 810 c 0
 295 819 352 824 410 827 c 0
EndSplineSet
EndChar

StartChar: four
Encoding: 52 52 19
Width: 1014
VWidth: 910
Flags: HW
LayerCount: 2
Fore
SplineSet
324 803 m 2
 335 819 l 1
 416 819 l 1
 498 819 l 1
 493 812 l 2
 488 803 309 529 307 525 c 2
 305 522 l 1
 379 522 l 1
 453 522 l 1
 453 569 l 1
 453 614 l 1
 570 614 l 1
 686 614 l 1
 686 569 l 1
 686 522 l 1
 823 522 l 1
 959 522 l 1
 959 486 l 1
 959 449 l 1
 823 449 l 1
 686 449 l 1
 686 225 l 1
 686 0 l 1
 570 0 l 1
 453 0 l 1
 453 224 l 1
 453 449 l 1
 274 449 l 1
 94 450 l 1
 204 618 l 2
 264 710 318 794 324 803 c 2
EndSplineSet
EndChar

StartChar: five
Encoding: 53 53 20
Width: 1097
VWidth: 910
Flags: HW
LayerCount: 2
Fore
SplineSet
110 642 m 1
 110 819 l 1
 549 819 l 1
 988 819 l 1
 988 783 l 1
 988 745 l 1
 665 745 l 1
 343 745 l 1
 343 680 l 2
 343 628 343 614 344 614 c 0
 345 614 354 615 365 615 c 0
 411 619 438 619 533 619 c 0
 643 620 668 618 720 612 c 0
 806 602 868 581 913 547 c 0
 958 513 982 463 989 389 c 0
 994 347 994 268 989 226 c 0
 982 152 958 101 913 67 c 0
 857 25 776 3 649 -4 c 0
 621 -6 447 -6 411 -4 c 0
 331 0 278 5 232 16 c 0
 180 27 145 46 126 71 c 0
 119 80 115 89 112 99 c 0
 110 105 110 110 110 129 c 2
 110 151 l 1
 231 151 l 2
 346 151 352 151 352 149 c 0
 351 148 350 140 347 131 c 0
 343 114 343 112 344 107 c 0
 346 95 352 85 362 79 c 0
 367 76 369 76 377 75 c 0
 404 70 432 69 514 68 c 0
 630 67 649 69 677 83 c 0
 691 90 698 95 710 107 c 0
 736 132 751 172 756 228 c 0
 761 269 761 345 756 386 c 0
 751 442 736 482 710 507 c 0
 698 519 691 525 677 532 c 0
 649 546 630 547 514 546 c 0
 432 545 404 545 377 540 c 0
 369 539 367 538 362 535 c 0
 352 529 346 519 344 507 c 0
 343 502 343 500 347 484 c 0
 350 474 351 466 352 465 c 0
 352 463 346 463 231 463 c 2
 110 463 l 1
 110 642 l 1
EndSplineSet
EndChar

StartChar: six
Encoding: 54 54 21
Width: 1097
VWidth: 910
Flags: HW
LayerCount: 2
Fore
SplineSet
445 824 m 0
 453 824 483 825 511 825 c 0
 645 825 732 818 802 803 c 0
 842 794 868 782 891 765 c 0
 911 750 924 731 928 710 c 0
 930 705 930 697 930 681 c 2
 930 659 l 1
 809 659 l 2
 694 659 688 659 688 661 c 0
 689 662 691 670 694 679 c 0
 699 697 698 702 694 713 c 0
 690 723 680 736 671 741 c 0
 659 747 599 751 514 751 c 0
 479 751 473 751 461 746 c 0
 443 740 427 730 412 715 c 0
 395 698 383 679 372 647 c 0
 367 635 360 611 360 610 c 2
 360 610 369 611 379 612 c 0
 427 618 455 619 549 619 c 0
 643 620 670 618 720 612 c 0
 806 602 868 581 913 547 c 0
 958 513 982 463 989 389 c 0
 994 347 994 268 989 226 c 0
 982 152 958 101 913 67 c 0
 868 33 806 13 720 3 c 0
 670 -3 643 -5 549 -5 c 0
 455 -5 428 -3 378 3 c 0
 292 13 230 33 185 67 c 0
 140 101 115 151 108 225 c 0
 104 252 105 281 105 353 c 0
 106 438 107 475 112 521 c 0
 122 617 144 685 179 727 c 0
 225 783 320 818 445 824 c 0
611 545 m 0
 590 546 507 546 484 545 c 0
 455 543 438 540 421 532 c 0
 406 525 400 519 388 507 c 0
 362 482 346 442 341 386 c 0
 336 345 336 269 341 228 c 0
 346 172 362 132 388 107 c 0
 400 95 406 90 421 83 c 0
 446 71 466 68 549 68 c 0
 632 68 651 71 677 83 c 0
 691 90 698 95 710 107 c 0
 736 132 751 172 756 228 c 0
 760 258 761 316 759 355 c 0
 755 431 741 477 710 507 c 0
 698 519 691 525 677 532 c 0
 658 541 644 543 611 545 c 0
EndSplineSet
EndChar

StartChar: seven
Encoding: 55 55 22
Width: 987
VWidth: 910
Flags: HW
LayerCount: 2
Fore
SplineSet
56 783 m 1
 56 819 l 1
 483 819 l 1
 910 819 l 1
 910 783 l 1
 910 745 l 1
 684 373 l 1
 460 0 l 1
 343 0 l 1
 227 0 l 2
 227 1 327 168 451 373 c 2
 677 745 l 1
 366 745 l 1
 56 745 l 1
 56 783 l 1
EndSplineSet
EndChar

StartChar: eight
Encoding: 56 56 23
Width: 1097
VWidth: 910
Flags: HW
LayerCount: 2
Fore
SplineSet
460 824 m 0
 513 826 630 825 675 822 c 0
 772 817 852 798 899 772 c 0
 945 746 970 706 978 644 c 0
 980 632 980 590 978 578 c 0
 973 534 959 501 934 476 c 0
 920 462 902 451 878 441 c 0
 872 438 867 435 866 435 c 2
 866 435 870 433 875 431 c 0
 903 419 931 402 946 386 c 0
 971 359 985 324 991 276 c 0
 993 257 993 209 991 190 c 0
 985 142 971 107 946 80 c 0
 917 47 855 22 773 8 c 0
 714 -2 656 -5 549 -5 c 0
 442 -5 384 -2 326 8 c 0
 243 22 181 47 152 80 c 0
 127 107 112 142 106 190 c 0
 104 209 104 257 106 276 c 0
 112 324 127 359 152 386 c 0
 167 402 195 419 223 431 c 0
 228 433 232 435 232 435 c 2
 231 435 225 438 219 441 c 0
 178 458 154 479 138 512 c 0
 128 530 122 553 119 578 c 0
 117 590 117 632 119 644 c 0
 126 698 147 738 181 761 c 0
 235 798 327 819 460 824 c 0
638 749 m 0
 623 750 500 751 477 750 c 0
 438 748 419 744 402 735 c 0
 388 729 377 715 368 698 c 0
 348 659 345 588 360 542 c 0
 369 514 384 495 403 486 c 0
 418 479 432 475 461 473 c 0
 481 471 616 471 636 473 c 0
 665 475 679 479 694 486 c 0
 701 490 705 493 711 498 c 0
 723 510 731 523 737 542 c 0
 750 581 750 641 737 680 c 0
 728 708 713 726 694 736 c 0
 679 743 665 747 638 749 c 0
618 397 m 0
 593 398 502 398 477 397 c 0
 438 395 418 391 399 381 c 0
 372 367 354 341 345 301 c 0
 339 274 336 239 339 208 c 0
 344 142 364 102 399 85 c 0
 425 71 453 68 549 68 c 0
 645 68 673 71 699 85 c 0
 726 98 744 125 753 165 c 0
 762 206 762 260 753 301 c 0
 744 341 726 368 699 381 c 0
 679 391 661 395 618 397 c 0
EndSplineSet
EndChar

StartChar: nine
Encoding: 57 57 24
Width: 1097
VWidth: 910
Flags: HW
LayerCount: 2
Fore
SplineSet
478 824 m 0
 494 825 637 824 652 823 c 0
 719 819 768 811 813 798 c 0
 853 787 886 772 913 752 c 0
 958 718 982 668 989 594 c 0
 993 567 993 538 993 467 c 0
 992 381 991 345 986 299 c 0
 976 203 953 134 918 93 c 0
 871 37 777 1 650 -5 c 0
 640 -6 610 -5 584 -5 c 0
 450 -5 365 1 296 16 c 0
 256 25 230 37 207 54 c 0
 187 69 173 88 169 109 c 0
 167 114 167 122 167 138 c 2
 167 160 l 1
 289 160 l 2
 404 160 410 160 410 158 c 0
 409 157 407 149 404 140 c 0
 399 122 399 117 403 107 c 0
 407 96 418 83 427 78 c 0
 439 72 498 68 583 68 c 0
 618 68 624 68 636 73 c 0
 654 79 670 89 685 104 c 0
 702 121 714 140 725 172 c 0
 730 184 737 208 737 209 c 2
 737 209 729 209 719 208 c 0
 671 202 643 200 550 200 c 0
 455 199 428 202 378 208 c 0
 292 218 230 238 185 272 c 0
 140 306 115 357 108 431 c 0
 103 473 103 551 108 593 c 0
 115 667 140 718 185 752 c 0
 230 786 292 806 378 816 c 0
 407 820 432 822 478 824 c 0
611 750 m 0
 590 751 507 751 484 750 c 0
 455 748 438 744 421 736 c 0
 406 729 400 724 388 712 c 0
 362 687 346 647 341 591 c 0
 336 550 336 474 341 433 c 0
 346 377 362 337 388 312 c 0
 400 300 406 295 421 288 c 0
 446 276 466 273 549 273 c 0
 632 273 651 276 677 288 c 0
 691 295 698 300 710 312 c 0
 736 337 751 377 756 433 c 0
 760 463 761 521 759 560 c 0
 755 636 741 682 710 712 c 0
 698 724 691 729 677 736 c 0
 658 745 644 748 611 750 c 0
EndSplineSet
EndChar

StartChar: colon
Encoding: 58 58 25
Width: 360
VWidth: 910
Flags: HW
LayerCount: 2
Fore
SplineSet
152 613 m 0
 194 617 243 612 271 601 c 0
 296 592 303 578 291 566 c 0
 273 548 210 537 154 542 c 0
 88 547 52 566 67 587 c 0
 77 600 111 609 152 613 c 0
152 73 m 0
 212 78 278 65 293 46 c 0
 308 25 273 6 207 1 c 0
 192 0 169 0 154 1 c 0
 88 6 52 25 67 46 c 0
 77 59 111 69 152 73 c 0
EndSplineSet
EndChar

StartChar: semicolon
Encoding: 59 59 26
Width: 360
VWidth: 910
Flags: HW
LayerCount: 2
Fore
SplineSet
152 613 m 0
 194 617 243 612 271 601 c 0
 296 592 303 578 291 566 c 0
 273 548 210 537 154 542 c 0
 88 547 52 566 67 587 c 0
 77 600 111 609 152 613 c 0
158 73 m 0
 168 74 196 74 207 73 c 0
 248 69 279 60 291 47 c 0
 296 42 297 40 297 19 c 0
 294 -54 277 -126 246 -194 c 0
 236 -216 232 -223 227 -227 c 0
 213 -238 188 -244 153 -249 c 0
 134 -251 101 -251 82 -249 c 0
 35 -244 4 -231 1 -215 c 0
 1 -212 1 -210 5 -203 c 0
 40 -137 61 -57 64 22 c 0
 64 42 65 44 71 49 c 0
 84 61 119 70 158 73 c 0
EndSplineSet
EndChar

StartChar: less
Encoding: 60 60 27
Width: 1238
VWidth: 910
Flags: HW
LayerCount: 2
Fore
SplineSet
619 491 m 2
 865 565 1066 625 1066 625 c 2
 1067 625 1067 603 1067 577 c 2
 1067 530 l 1
 698 419 l 2
 411 332 331 307 333 307 c 0
 334 306 500 256 701 196 c 2
 1067 85 l 1
 1067 37 l 1
 1067 -11 l 1
 1067 -11 866 50 620 124 c 2
 173 259 l 1
 173 308 l 1
 173 355 l 1
 619 491 l 2
EndSplineSet
EndChar

StartChar: equal
Encoding: 61 61 28
Width: 1238
VWidth: 910
Flags: HW
LayerCount: 2
Fore
SplineSet
56 410 m 1
 56 447 l 1
 620 447 l 1
 1183 447 l 1
 1183 410 l 1
 1183 372 l 1
 620 372 l 1
 56 372 l 1
 56 410 l 1
56 205 m 1
 56 242 l 1
 620 242 l 1
 1183 242 l 1
 1183 205 l 1
 1183 167 l 1
 620 167 l 1
 56 167 l 1
 56 205 l 1
EndSplineSet
EndChar

StartChar: greater
Encoding: 62 62 29
Width: 1238
VWidth: 910
Flags: HW
LayerCount: 2
Fore
SplineSet
172 577 m 1
 172 625 l 1
 172 625 373 565 620 491 c 2
 1067 355 l 1
 1067 308 l 1
 1067 259 l 1
 620 124 l 2
 373 50 172 -11 172 -11 c 1
 172 37 l 1
 173 85 l 1
 538 196 l 2
 739 256 905 306 906 307 c 0
 908 307 828 332 541 419 c 2
 173 530 l 1
 172 577 l 1
EndSplineSet
EndChar

StartChar: question
Encoding: 63 63 30
Width: 987
VWidth: 910
Flags: HW
LayerCount: 2
Fore
SplineSet
408 824 m 0
 437 825 547 825 576 824 c 0
 636 822 682 816 725 808 c 0
 784 797 831 780 864 755 c 0
 905 724 926 675 931 600 c 0
 933 578 932 534 930 516 c 0
 923 452 901 409 863 380 c 0
 833 357 789 336 745 323 c 0
 705 311 671 305 618 300 c 1
 611 300 l 1
 611 218 l 1
 611 137 l 1
 494 137 l 1
 377 137 l 1
 377 260 l 1
 377 384 l 1
 492 384 l 1
 606 384 l 1
 617 390 l 2
 631 397 642 404 650 410 c 0
 683 436 699 488 699 568 c 0
 699 619 692 662 678 690 c 0
 670 705 657 721 644 729 c 0
 631 737 615 743 598 746 c 0
 579 750 565 750 494 750 c 0
 422 750 409 750 390 746 c 0
 365 742 345 733 330 718 c 0
 311 698 298 670 293 630 c 0
 289 608 289 589 289 557 c 2
 289 531 l 1
 172 531 l 1
 56 531 l 1
 56 559 l 2
 56 592 56 611 60 633 c 0
 67 689 89 730 124 755 c 0
 180 797 273 819 408 824 c 0
466 73 m 0
 518 77 575 68 599 53 c 0
 606 48 611 41 611 37 c 0
 611 32 606 26 599 21 c 0
 563 -4 458 -7 403 14 c 0
 388 20 377 29 377 36 c 0
 377 41 382 48 389 53 c 0
 404 62 433 70 466 73 c 0
EndSplineSet
EndChar

StartChar: at
Encoding: 64 64 31
Width: 1473
VWidth: 910
Flags: HW
LayerCount: 2
Fore
SplineSet
641 844 m 0
 666 845 855 844 873 843 c 0
 954 839 1007 833 1062 822 c 0
 1174 800 1253 760 1299 704 c 0
 1337 657 1358 595 1365 509 c 0
 1369 468 1370 404 1367 383 c 0
 1359 332 1337 291 1304 266 c 0
 1271 241 1232 226 1175 220 c 0
 1152 217 1104 217 1082 219 c 0
 1066 221 1045 225 1035 228 c 0
 1031 229 1029 229 1028 229 c 2
 1026 222 l 2
 1018 198 1003 180 983 166 c 0
 937 133 863 118 745 118 c 0
 688 118 644 122 608 129 c 0
 504 150 459 195 443 295 c 0
 438 323 437 360 437 420 c 0
 437 499 440 538 450 574 c 0
 454 591 458 604 465 619 c 0
 481 651 502 672 537 688 c 0
 572 704 615 714 678 719 c 0
 710 722 792 721 828 718 c 0
 894 713 947 698 980 675 c 0
 1012 654 1029 625 1035 577 c 0
 1036 567 1036 552 1037 457 c 2
 1037 348 l 1
 1054 348 l 2
 1074 348 1095 347 1110 344 c 0
 1116 343 1122 342 1122 342 c 2
 1125 344 1131 369 1134 386 c 0
 1137 407 1136 465 1132 506 c 0
 1127 566 1117 610 1097 648 c 0
 1077 687 1048 715 1009 735 c 0
 973 754 932 763 872 768 c 0
 834 771 708 772 646 770 c 0
 556 767 509 758 464 735 c 0
 425 715 397 687 377 648 c 0
 350 595 338 526 338 420 c 0
 338 350 343 296 354 253 c 0
 366 204 388 164 416 137 c 0
 441 113 486 86 526 70 c 0
 558 58 584 52 607 52 c 2
 620 52 l 1
 620 60 l 1
 620 68 l 1
 737 68 l 1
 854 68 l 1
 854 50 l 2
 854 39 854 30 853 28 c 0
 851 21 839 12 824 7 c 0
 809 2 772 -7 744 -12 c 0
 701 -19 670 -22 624 -23 c 0
 534 -24 446 -10 370 15 c 0
 294 41 214 88 179 129 c 0
 164 147 156 161 146 182 c 0
 117 239 105 309 105 420 c 0
 105 532 117 601 147 660 c 0
 162 690 182 716 206 735 c 0
 255 776 322 805 411 822 c 0
 475 835 544 841 641 844 c 0
782 661 m 0
 771 662 718 662 710 661 c 0
 696 659 683 652 671 640 c 0
 649 618 634 582 628 532 c 0
 624 503 623 488 624 420 c 0
 624 351 624 338 628 309 c 0
 636 244 657 202 691 186 c 0
 705 179 705 178 740 177 c 0
 784 177 795 179 808 187 c 0
 830 201 843 224 848 264 c 0
 849 276 850 286 850 419 c 0
 850 569 850 569 846 592 c 0
 844 602 839 617 836 624 c 0
 831 631 824 640 819 645 c 0
 807 655 797 659 782 661 c 0
EndSplineSet
EndChar

StartChar: A
Encoding: 65 65 32
Width: 1167
VWidth: 910
Flags: HW
LayerCount: 2
Fore
SplineSet
435 816 m 2
 436 819 l 1
 584 819 l 1
 732 819 l 1
 916 411 l 2
 1017 186 1100 1 1100 1 c 2
 1100 0 1048 0 983 0 c 2
 867 0 l 1
 817 137 l 1
 767 274 l 1
 584 274 l 1
 400 274 l 1
 350 137 l 1
 301 0 l 1
 185 0 l 2
 120 0 68 0 68 1 c 2
 68 1 432 811 435 816 c 2
663 562 m 0
 621 678 585 774 585 776 c 0
 584 779 579 764 506 563 c 0
 463 446 428 349 428 349 c 2
 428 348 498 348 584 348 c 0
 732 348 740 348 740 350 c 0
 740 351 705 446 663 562 c 0
EndSplineSet
EndChar

StartChar: B
Encoding: 66 66 33
Width: 1097
VWidth: 910
Flags: HW
LayerCount: 2
Fore
SplineSet
110 410 m 1
 110 819 l 1
 259 819 l 2
 423 818 460 818 542 813 c 0
 660 806 761 791 827 770 c 0
 924 740 984 678 988 602 c 0
 989 571 982 540 968 512 c 0
 955 487 939 466 918 451 c 0
 897 436 882 428 850 416 c 2
 834 411 l 1
 845 408 l 1
 911 386 948 357 973 309 c 0
 987 281 994 249 993 218 c 0
 991 179 975 144 944 113 c 0
 927 95 906 82 880 68 c 0
 854 55 830 47 793 38 c 0
 727 23 649 12 553 7 c 0
 469 2 390 0 226 0 c 2
 110 0 l 1
 110 410 l 1
447 743 m 0
 432 744 402 744 381 745 c 2
 343 745 l 1
 343 596 l 1
 343 447 l 1
 438 447 l 2
 491 448 542 448 553 449 c 0
 611 452 647 456 674 465 c 0
 693 470 700 475 714 489 c 0
 739 514 753 549 755 590 c 0
 757 631 739 667 705 694 c 0
 690 706 677 714 662 718 c 0
 619 731 546 739 447 743 c 0
555 371 m 0
 543 372 492 372 439 373 c 2
 343 373 l 1
 343 224 l 1
 343 74 l 1
 346 75 l 1
 389 75 l 2
 497 77 582 83 639 95 c 0
 663 100 670 102 684 108 c 0
 725 128 754 166 759 209 c 0
 764 243 754 284 734 314 c 0
 728 323 713 339 704 344 c 0
 682 359 635 367 555 371 c 0
EndSplineSet
EndChar

StartChar: C
Encoding: 67 67 34
Width: 1097
VWidth: 910
Flags: HW
LayerCount: 2
Fore
SplineSet
482 824 m 0
 527 826 656 825 707 822 c 0
 836 816 925 796 969 765 c 0
 993 747 1011 724 1018 699 c 0
 1020 690 1019 689 1020 664 c 2
 1020 637 l 1
 899 637 l 2
 803 637 778 637 778 638 c 0
 779 639 781 647 784 657 c 2
 787 674 l 1
 786 684 l 2
 785 694 781 704 776 713 c 0
 771 720 760 732 754 736 c 0
 741 744 705 748 638 750 c 0
 589 752 500 751 485 749 c 0
 453 744 430 733 406 709 c 0
 385 688 371 663 360 629 c 0
 351 602 346 575 342 538 c 0
 338 505 339 488 339 410 c 0
 339 332 338 314 342 281 c 0
 346 244 351 217 360 191 c 0
 371 156 385 131 406 110 c 0
 430 86 453 75 485 70 c 0
 500 68 589 67 638 69 c 0
 705 71 741 75 754 83 c 0
 760 87 771 99 776 106 c 0
 781 115 785 126 786 136 c 2
 787 145 l 1
 784 162 l 2
 781 172 779 180 778 181 c 0
 778 182 803 182 899 182 c 2
 1020 182 l 1
 1020 156 l 2
 1019 131 1020 129 1018 121 c 0
 1011 95 993 72 969 54 c 0
 951 41 922 29 890 21 c 0
 813 2 724 -5 566 -5 c 0
 462 -5 408 -2 352 9 c 0
 226 34 159 86 127 183 c 0
 115 219 110 255 106 311 c 0
 104 336 104 484 106 509 c 0
 110 565 115 600 127 636 c 0
 152 714 201 763 283 792 c 0
 334 810 399 820 482 824 c 0
EndSplineSet
EndChar

StartChar: D
Encoding: 68 68 35
Width: 1069
VWidth: 910
Flags: HW
LayerCount: 2
Fore
SplineSet
110 410 m 1
 110 819 l 1
 220 819 l 2
 324 819 367 818 420 816 c 0
 603 809 732 783 826 737 c 0
 848 726 861 719 877 707 c 0
 937 662 975 586 988 487 c 0
 992 460 991 447 991 410 c 0
 991 373 992 359 988 332 c 0
 980 264 958 206 927 164 c 0
 900 128 872 105 826 82 c 0
 732 36 603 10 420 3 c 0
 367 1 324 0 220 0 c 2
 110 0 l 1
 110 410 l 1
402 743 m 0
 392 743 374 744 363 745 c 2
 343 745 l 1
 343 410 l 1
 343 75 l 1
 363 75 l 1
 469 79 536 88 590 105 c 0
 624 117 648 130 668 147 c 0
 714 185 744 249 755 335 c 0
 759 362 758 375 758 410 c 0
 758 445 759 457 755 484 c 0
 744 570 714 635 668 673 c 0
 657 682 649 687 636 694 c 0
 582 722 511 738 402 743 c 0
EndSplineSet
EndChar

StartChar: E
Encoding: 69 69 36
Width: 1069
VWidth: 910
Flags: HW
LayerCount: 2
Fore
SplineSet
110 410 m 1
 110 819 l 1
 549 819 l 1
 987 819 l 1
 987 783 l 1
 987 745 l 1
 665 745 l 1
 343 745 l 1
 343 596 l 1
 343 447 l 1
 634 447 l 1
 924 447 l 1
 924 410 l 1
 924 372 l 1
 634 372 l 1
 343 372 l 1
 343 223 l 1
 343 74 l 1
 665 74 l 1
 987 74 l 1
 987 37 l 1
 987 0 l 1
 549 0 l 1
 110 0 l 1
 110 410 l 1
EndSplineSet
EndChar

StartChar: F
Encoding: 70 70 37
Width: 1069
VWidth: 910
Flags: HW
LayerCount: 2
Fore
SplineSet
110 410 m 1
 110 819 l 1
 549 819 l 1
 987 819 l 1
 987 783 l 1
 987 745 l 1
 665 745 l 1
 343 745 l 1
 343 596 l 1
 343 447 l 1
 634 447 l 1
 924 447 l 1
 924 410 l 1
 924 372 l 1
 634 372 l 1
 343 372 l 1
 343 187 l 1
 343 0 l 1
 227 0 l 1
 110 0 l 1
 110 410 l 1
EndSplineSet
EndChar

StartChar: G
Encoding: 71 71 38
Width: 1097
VWidth: 910
Flags: HW
LayerCount: 2
Fore
SplineSet
482 824 m 0
 527 826 656 825 707 822 c 0
 836 816 925 796 969 765 c 0
 993 747 1011 724 1018 699 c 0
 1020 690 1019 689 1020 664 c 2
 1020 637 l 1
 899 637 l 2
 803 637 778 637 778 638 c 0
 779 639 781 647 784 657 c 2
 787 674 l 1
 786 684 l 2
 785 694 781 704 776 713 c 0
 771 720 760 732 754 736 c 0
 741 744 705 748 638 750 c 0
 589 752 500 751 485 749 c 0
 453 744 430 733 406 709 c 0
 385 688 371 663 360 629 c 0
 351 602 346 575 342 538 c 0
 338 505 339 488 339 410 c 0
 339 332 338 314 342 281 c 0
 346 244 351 217 360 191 c 0
 371 156 385 131 406 110 c 0
 430 86 453 75 485 70 c 0
 500 68 589 67 638 69 c 0
 705 71 741 75 754 83 c 0
 760 87 771 99 776 106 c 0
 781 114 784 125 786 134 c 0
 787 138 787 181 787 257 c 2
 787 373 l 1
 729 373 l 1
 671 373 l 1
 613 369 l 2
 581 366 554 364 552 364 c 2
 549 364 l 1
 549 410 l 1
 549 455 l 1
 552 455 l 2
 554 455 579 454 607 451 c 2
 659 447 l 1
 840 447 l 1
 1020 447 l 1
 1020 289 l 1
 1020 130 l 1
 1018 121 l 2
 1011 95 993 72 969 54 c 0
 951 41 922 29 890 21 c 0
 813 2 724 -5 566 -5 c 0
 462 -5 408 -2 352 9 c 0
 226 34 159 86 127 183 c 0
 115 219 110 255 106 311 c 0
 104 336 104 484 106 509 c 0
 110 565 115 600 127 636 c 0
 152 714 201 763 283 792 c 0
 334 810 399 820 482 824 c 0
EndSplineSet
EndChar

StartChar: H
Encoding: 72 72 39
Width: 1097
VWidth: 910
Flags: HW
LayerCount: 2
Fore
SplineSet
110 410 m 1
 110 819 l 1
 227 819 l 1
 343 819 l 1
 343 652 l 1
 343 484 l 1
 549 484 l 1
 755 484 l 1
 755 652 l 1
 755 819 l 1
 871 819 l 1
 988 819 l 1
 988 410 l 1
 988 0 l 1
 871 0 l 1
 755 0 l 1
 755 206 l 1
 755 411 l 1
 549 411 l 1
 343 411 l 1
 343 206 l 1
 343 0 l 1
 227 0 l 1
 110 0 l 1
 110 410 l 1
EndSplineSet
EndChar

StartChar: I
Encoding: 73 73 40
Width: 658
VWidth: 910
Flags: HW
LayerCount: 2
Fore
SplineSet
212 410 m 1
 212 819 l 1
 330 819 l 1
 446 819 l 1
 446 410 l 1
 446 0 l 1
 330 0 l 1
 212 0 l 1
 212 410 l 1
EndSplineSet
EndChar

StartChar: J
Encoding: 74 74 41
Width: 916
VWidth: 910
Flags: HW
LayerCount: 2
Fore
SplineSet
573 572 m 2
 573 819 l 1
 690 819 l 1
 806 819 l 1
 806 570 l 2
 805 318 806 313 802 275 c 0
 793 170 765 103 714 65 c 0
 673 36 618 16 542 6 c 0
 476 -2 386 -2 320 6 c 0
 244 16 189 36 148 65 c 0
 97 103 69 170 60 274 c 0
 57 305 57 322 56 387 c 2
 56 451 l 1
 177 451 l 1
 298 451 l 1
 293 433 l 1
 289 415 l 1
 289 370 l 2
 290 324 290 304 293 277 c 0
 302 172 331 109 380 84 c 0
 395 77 407 74 431 74 c 0
 456 74 467 77 482 84 c 0
 531 109 560 172 569 278 c 0
 573 316 572 321 573 572 c 2
EndSplineSet
EndChar

StartChar: K
Encoding: 75 75 42
Width: 1069
VWidth: 910
Flags: HW
LayerCount: 2
Fore
SplineSet
110 410 m 1
 110 819 l 1
 227 819 l 1
 343 819 l 1
 343 683 l 1
 344 545 l 1
 581 683 l 1
 817 819 l 1
 934 819 l 1
 1049 819 l 1
 830 692 l 2
 709 622 595 556 578 546 c 2
 545 527 l 1
 781 264 l 2
 910 119 1017 1 1017 0 c 2
 900 0 l 1
 785 0 l 1
 608 230 l 2
 465 417 431 462 430 461 c 0
 429 461 410 449 386 435 c 2
 344 411 l 1
 343 206 l 1
 343 0 l 1
 227 0 l 1
 110 0 l 1
 110 410 l 1
EndSplineSet
EndChar

StartChar: L
Encoding: 76 76 43
Width: 1042
VWidth: 910
Flags: HW
LayerCount: 2
Fore
SplineSet
110 410 m 1
 110 819 l 1
 227 819 l 1
 343 819 l 1
 343 447 l 1
 343 74 l 1
 665 74 l 1
 987 74 l 1
 987 37 l 1
 987 0 l 1
 549 0 l 1
 110 0 l 1
 110 410 l 1
EndSplineSet
EndChar

StartChar: M
Encoding: 77 77 44
Width: 1599
VWidth: 910
Flags: HW
LayerCount: 2
Fore
SplineSet
110 814 m 2
 110 819 l 1
 227 819 l 1
 343 819 l 1
 572 471 l 1
 800 124 l 1
 807 136 l 2
 811 142 914 298 1035 483 c 2
 1256 819 l 1
 1373 819 l 1
 1489 819 l 1
 1489 814 l 2
 1490 810 1504 628 1520 410 c 0
 1537 191 1551 8 1552 5 c 2
 1552 0 l 1
 1435 0 l 1
 1319 0 l 1
 1319 5 l 2
 1318 8 1309 127 1298 271 c 0
 1287 416 1278 533 1278 534 c 2
 1278 534 1189 415 1080 268 c 2
 881 1 l 1
 800 1 l 1
 718 1 l 1
 520 268 l 2
 411 415 321 534 321 534 c 2
 321 533 312 416 301 271 c 0
 290 127 281 8 280 5 c 2
 280 0 l 1
 164 0 l 1
 47 0 l 1
 47 5 l 2
 48 8 62 191 79 410 c 0
 95 628 109 810 110 814 c 2
EndSplineSet
EndChar

StartChar: N
Encoding: 78 78 45
Width: 1097
VWidth: 910
Flags: HW
LayerCount: 2
Fore
SplineSet
110 410 m 1
 110 819 l 1
 227 819 l 1
 343 819 l 1
 549 526 l 1
 755 233 l 1
 755 526 l 1
 755 819 l 1
 871 819 l 1
 988 819 l 1
 988 410 l 1
 988 0 l 1
 871 0 l 1
 755 1 l 1
 549 293 l 1
 344 586 l 1
 343 293 l 1
 343 0 l 1
 227 0 l 1
 110 0 l 1
 110 410 l 1
EndSplineSet
EndChar

StartChar: O
Encoding: 79 79 46
Width: 1419
VWidth: 910
Flags: HW
LayerCount: 2
Fore
SplineSet
613 824 m 0
 638 825 828 824 847 823 c 0
 916 819 967 814 1015 806 c 0
 1109 790 1179 764 1232 725 c 0
 1292 679 1327 607 1337 505 c 0
 1341 474 1341 460 1341 410 c 0
 1341 352 1339 324 1334 289 c 0
 1320 200 1287 137 1232 95 c 0
 1159 40 1047 9 890 -1 c 0
 839 -5 819 -5 710 -5 c 0
 600 -5 580 -5 530 -1 c 0
 372 9 260 40 187 95 c 0
 127 141 92 212 82 315 c 0
 78 345 78 360 78 410 c 0
 78 468 80 496 85 531 c 0
 99 620 132 683 187 725 c 0
 267 785 392 816 576 823 c 0
 590 824 607 824 613 824 c 0
829 749 m 0
 814 750 651 751 625 750 c 0
 520 748 464 735 417 706 c 0
 358 670 325 603 315 502 c 0
 311 471 311 457 311 410 c 0
 311 354 313 326 318 291 c 0
 333 195 369 136 435 103 c 0
 475 83 516 74 592 70 c 0
 620 68 799 68 827 70 c 0
 903 74 944 83 984 103 c 0
 1050 136 1086 195 1101 291 c 0
 1106 326 1108 354 1108 410 c 0
 1108 466 1106 493 1101 528 c 0
 1086 624 1050 683 984 716 c 0
 945 736 903 744 829 749 c 0
EndSplineSet
EndChar

StartChar: P
Encoding: 80 80 47
Width: 1069
VWidth: 910
Flags: HW
LayerCount: 2
Fore
SplineSet
110 410 m 1
 110 819 l 1
 226 819 l 2
 373 819 443 819 520 814 c 0
 651 808 753 794 828 771 c 0
 908 747 964 702 985 643 c 0
 990 626 991 616 991 596 c 0
 991 576 990 567 985 550 c 0
 973 515 950 486 915 461 c 0
 878 436 836 421 766 406 c 0
 678 388 553 377 409 374 c 0
 391 374 369 374 360 373 c 2
 343 373 l 1
 343 187 l 1
 343 0 l 1
 227 0 l 1
 110 0 l 1
 110 410 l 1
418 744 m 0
 396 745 371 745 361 745 c 2
 343 745 l 1
 343 596 l 1
 343 448 l 1
 361 448 l 2
 507 450 611 458 665 474 c 0
 686 479 704 491 723 509 c 0
 741 528 752 548 757 573 c 0
 759 584 759 608 757 619 c 0
 752 644 741 665 723 684 c 0
 704 702 686 713 665 718 c 0
 618 732 535 741 418 744 c 0
EndSplineSet
EndChar

StartChar: Q
Encoding: 81 81 48
Width: 1419
VWidth: 910
Flags: HW
LayerCount: 2
Fore
SplineSet
613 824 m 0
 638 825 828 824 847 823 c 0
 966 818 1050 805 1120 781 c 0
 1215 749 1273 702 1304 634 c 0
 1324 590 1335 544 1340 476 c 0
 1342 455 1342 364 1340 344 c 0
 1336 290 1330 256 1319 221 c 0
 1306 182 1291 157 1265 125 c 2
 1262 120 l 1
 1266 115 l 2
 1286 94 1302 67 1308 40 c 0
 1311 30 1313 13 1313 5 c 2
 1313 0 l 1
 1192 0 l 1
 1071 0 l 1
 1071 5 l 2
 1071 10 1070 23 1070 24 c 2
 1070 24 1061 22 1052 20 c 0
 1007 10 949 3 890 -1 c 0
 839 -5 819 -5 710 -5 c 0
 600 -5 580 -5 530 -1 c 0
 372 9 260 40 187 95 c 0
 127 141 92 212 82 315 c 0
 78 345 78 360 78 410 c 0
 78 468 80 496 85 531 c 0
 99 620 132 683 187 725 c 0
 267 785 392 816 576 823 c 0
 590 824 607 824 613 824 c 0
829 749 m 0
 814 750 651 751 625 750 c 0
 520 748 464 735 417 706 c 0
 358 670 325 603 315 502 c 0
 311 471 311 457 311 410 c 0
 311 354 313 326 318 291 c 0
 333 195 369 136 435 103 c 0
 475 83 516 74 592 70 c 0
 620 68 799 68 827 70 c 0
 902 74 944 83 983 103 c 0
 995 108 1009 116 1014 121 c 2
 1017 124 l 1
 1008 131 l 2
 973 161 925 179 877 183 c 0
 875 183 917 184 971 184 c 2
 1069 184 l 1
 1072 192 l 2
 1088 226 1099 268 1104 318 c 0
 1108 348 1108 363 1108 410 c 0
 1108 466 1106 493 1101 528 c 0
 1086 624 1050 683 984 716 c 0
 945 736 903 744 829 749 c 0
EndSplineSet
EndChar

StartChar: R
Encoding: 82 82 49
Width: 1097
VWidth: 910
Flags: HW
LayerCount: 2
Fore
SplineSet
110 410 m 1
 110 819 l 1
 263 819 l 2
 412 818 443 819 512 815 c 0
 649 810 754 797 836 776 c 0
 880 765 912 751 942 731 c 0
 1007 688 1035 626 1019 562 c 0
 1004 503 949 453 868 426 c 0
 812 407 718 391 613 383 c 0
 599 382 587 381 586 381 c 2
 586 381 682 305 800 213 c 0
 918 120 1028 35 1043 22 c 2
 1071 0 l 1
 955 0 l 1
 838 0 l 1
 601 187 l 1
 362 373 l 1
 352 373 l 1
 343 373 l 1
 343 187 l 1
 343 0 l 1
 227 0 l 1
 110 0 l 1
 110 410 l 1
400 744 m 0
 379 745 358 744 353 745 c 2
 343 745 l 1
 343 596 l 1
 343 447 l 1
 353 447 l 2
 358 448 379 448 400 449 c 0
 529 450 628 458 688 473 c 0
 713 479 739 495 758 516 c 0
 802 562 802 630 758 676 c 0
 739 697 713 713 688 719 c 0
 628 734 529 743 400 744 c 0
EndSplineSet
EndChar

StartChar: S
Encoding: 83 83 50
Width: 1097
VWidth: 910
Flags: HW
LayerCount: 2
Fore
SplineSet
458 824 m 0
 488 825 614 825 648 824 c 0
 743 821 807 814 863 799 c 0
 898 790 921 780 942 765 c 0
 962 750 978 726 984 701 c 0
 987 691 987 690 988 664 c 2
 988 637 l 1
 867 637 l 2
 752 637 745 637 745 639 c 0
 746 640 748 648 751 658 c 0
 755 673 755 676 755 682 c 0
 753 702 744 721 730 734 c 0
 723 739 719 741 708 744 c 0
 686 749 657 750 576 751 c 0
 451 752 420 749 392 734 c 0
 386 731 382 728 376 722 c 0
 367 713 362 707 357 694 c 0
 346 672 340 645 338 610 c 0
 336 562 350 527 382 499 c 0
 407 477 442 461 482 453 c 0
 503 448 514 448 545 447 c 0
 589 445 618 444 634 442 c 0
 754 432 850 405 912 360 c 0
 949 333 974 298 983 259 c 0
 988 240 989 220 987 194 c 0
 983 144 968 105 942 76 c 0
 908 40 832 13 731 2 c 0
 684 -3 653 -4 566 -5 c 0
 469 -5 418 -5 362 0 c 0
 274 7 206 23 170 46 c 0
 161 51 148 60 143 66 c 0
 129 81 119 99 114 118 c 0
 111 128 111 130 110 156 c 2
 110 182 l 1
 231 182 l 2
 346 182 352 182 352 180 c 0
 351 179 350 171 347 162 c 0
 343 147 343 143 343 137 c 0
 345 117 354 99 368 86 c 0
 375 81 379 79 390 76 c 0
 412 71 441 69 522 68 c 0
 646 67 676 71 703 86 c 0
 722 97 737 119 745 150 c 0
 750 166 755 196 755 218 c 0
 755 275 727 319 671 347 c 0
 647 358 620 366 589 370 c 0
 583 371 562 372 537 372 c 0
 491 374 475 375 447 378 c 0
 350 387 264 410 208 442 c 0
 138 482 105 534 105 601 c 0
 105 669 127 725 165 755 c 0
 218 796 316 819 458 824 c 0
EndSplineSet
EndChar

StartChar: T
Encoding: 84 84 51
Width: 1042
VWidth: 910
Flags: HW
LayerCount: 2
Fore
SplineSet
83 783 m 1
 83 819 l 1
 522 819 l 1
 959 819 l 1
 959 783 l 1
 959 745 l 1
 799 745 l 1
 638 745 l 1
 638 373 l 1
 638 0 l 1
 522 0 l 1
 404 0 l 1
 404 373 l 1
 404 745 l 1
 244 745 l 1
 83 745 l 1
 83 783 l 1
EndSplineSet
EndChar

StartChar: U
Encoding: 85 85 52
Width: 1097
VWidth: 910
Flags: HW
LayerCount: 2
Fore
SplineSet
110 552 m 2
 110 819 l 1
 227 819 l 1
 343 819 l 1
 343 553 l 2
 343 287 343 264 347 235 c 0
 353 171 370 129 403 101 c 0
 417 89 429 82 445 76 c 0
 464 71 484 68 549 68 c 0
 614 68 634 71 653 76 c 0
 669 82 680 89 694 101 c 0
 727 129 745 171 751 235 c 0
 755 264 755 287 755 553 c 2
 755 819 l 1
 871 819 l 1
 988 819 l 1
 988 552 l 2
 988 387 988 277 987 265 c 0
 983 186 969 138 935 96 c 0
 910 65 870 41 818 25 c 0
 772 10 718 0 646 -4 c 0
 618 -6 479 -6 452 -4 c 0
 379 0 325 10 279 25 c 0
 244 36 220 49 196 66 c 0
 148 102 121 154 114 232 c 0
 110 261 110 285 110 552 c 2
EndSplineSet
EndChar

StartChar: V
Encoding: 86 86 53
Width: 1167
VWidth: 910
Flags: HW
LayerCount: 2
Fore
SplineSet
68 818 m 2
 68 819 120 819 185 819 c 2
 301 819 l 1
 442 431 l 1
 583 41 l 1
 587 50 l 2
 589 55 653 230 729 439 c 2
 867 819 l 1
 983 819 l 2
 1048 819 1100 819 1100 818 c 2
 1100 818 1017 634 916 410 c 2
 732 1 l 1
 583 1 l 1
 436 1 l 1
 252 410 l 2
 151 634 68 818 68 818 c 2
EndSplineSet
EndChar

StartChar: W
Encoding: 87 87 54
Width: 1669
VWidth: 910
Flags: HW
LayerCount: 2
Fore
SplineSet
20 817 m 0
 20 819 26 819 137 819 c 2
 253 819 l 1
 266 781 l 2
 272 760 326 596 384 418 c 0
 442 240 491 93 491 93 c 1
 491 93 550 228 622 393 c 2
 753 694 l 1
 835 694 l 1
 917 694 l 1
 1048 393 l 2
 1120 227 1179 93 1179 93 c 1
 1179 93 1227 240 1285 418 c 0
 1343 596 1398 760 1404 781 c 2
 1416 819 l 1
 1533 819 l 2
 1644 819 1649 819 1649 817 c 0
 1648 816 1589 633 1516 409 c 2
 1382 1 l 1
 1184 1 l 1
 986 1 l 1
 910 225 l 2
 869 348 835 449 835 449 c 1
 835 449 800 348 759 225 c 2
 684 1 l 1
 485 1 l 1
 288 1 l 1
 154 409 l 2
 81 633 21 816 20 817 c 0
EndSplineSet
EndChar

StartChar: X
Encoding: 88 88 55
Width: 1097
VWidth: 910
Flags: HW
LayerCount: 2
Fore
SplineSet
101 796 m 2
 77 819 l 1
 194 819 l 1
 310 819 l 1
 430 671 l 2
 496 590 549 523 549 523 c 1
 549 523 602 590 668 671 c 2
 787 819 l 1
 904 819 l 1
 1020 819 l 1
 997 796 l 2
 904 700 632 422 632 421 c 0
 632 420 720 329 828 217 c 0
 936 106 1028 11 1032 7 c 2
 1039 0 l 1
 922 0 l 1
 806 0 l 1
 678 159 l 2
 607 246 549 319 549 319 c 1
 549 319 491 246 420 159 c 2
 292 0 l 1
 176 0 l 1
 59 0 l 1
 66 7 l 2
 70 12 162 107 270 218 c 0
 377 329 467 420 467 421 c 0
 467 422 195 700 101 796 c 2
EndSplineSet
EndChar

StartChar: Y
Encoding: 89 89 56
Width: 1097
VWidth: 910
Flags: HW
LayerCount: 2
Fore
SplineSet
76 818 m 2
 76 819 127 819 191 819 c 2
 308 819 l 1
 316 811 l 2
 321 806 327 801 331 798 c 0
 336 794 353 777 443 684 c 0
 500 623 549 574 549 574 c 2
 550 574 588 615 634 664 c 0
 762 797 763 796 769 800 c 0
 773 802 777 806 782 811 c 2
 790 819 l 1
 907 819 l 1
 1023 819 l 1
 1006 801 l 2
 991 786 988 782 987 779 c 0
 986 775 969 756 826 608 c 2
 665 441 l 1
 665 220 l 1
 665 0 l 1
 549 0 l 1
 432 0 l 1
 432 220 l 1
 432 441 l 1
 273 607 l 2
 180 703 113 774 112 776 c 0
 111 778 110 781 110 781 c 2
 110 782 102 790 93 800 c 0
 84 810 76 818 76 818 c 2
EndSplineSet
EndChar

StartChar: Z
Encoding: 90 90 57
Width: 1042
VWidth: 910
Flags: HW
LayerCount: 2
Fore
SplineSet
83 783 m 1
 83 819 l 1
 537 819 l 1
 991 819 l 1
 989 816 l 2
 967 791 959 783 958 779 c 0
 957 775 900 708 655 425 c 2
 352 75 l 1
 656 74 l 1
 959 74 l 1
 959 36 l 1
 959 0 l 1
 505 0 l 1
 51 0 l 1
 54 3 l 2
 76 28 83 36 84 40 c 0
 85 44 142 111 387 395 c 2
 690 745 l 1
 386 745 l 1
 83 745 l 1
 83 783 l 1
EndSplineSet
EndChar

StartChar: bracketleft
Encoding: 91 91 58
Width: 486
VWidth: 910
Flags: HW
LayerCount: 2
Fore
SplineSet
56 410 m 1
 56 882 l 1
 243 882 l 1
 431 882 l 1
 431 846 l 1
 431 808 l 1
 360 808 l 1
 289 808 l 1
 289 410 l 1
 289 11 l 1
 360 11 l 1
 431 11 l 1
 431 -25 l 1
 431 -63 l 1
 243 -63 l 1
 56 -63 l 1
 56 410 l 1
EndSplineSet
EndChar

StartChar: backslash
Encoding: 92 92 59
Width: 861
VWidth: 910
Flags: HW
LayerCount: 2
Fore
SplineSet
56 817 m 2
 56 819 l 1
 172 819 l 1
 289 819 l 1
 546 411 l 2
 688 187 805 3 806 2 c 2
 806 0 l 1
 690 0 l 1
 573 0 l 1
 316 408 l 2
 174 632 57 816 56 817 c 2
EndSplineSet
EndChar

StartChar: bracketright
Encoding: 93 93 60
Width: 486
VWidth: 910
Flags: HW
LayerCount: 2
Fore
SplineSet
56 846 m 1
 56 882 l 1
 243 882 l 1
 431 882 l 1
 431 410 l 1
 431 -63 l 1
 243 -63 l 1
 56 -63 l 1
 56 -25 l 1
 56 11 l 1
 127 11 l 1
 198 11 l 1
 198 410 l 1
 198 808 l 1
 127 808 l 1
 56 808 l 1
 56 846 l 1
EndSplineSet
EndChar

StartChar: asciicircum
Encoding: 94 94 61
Width: 611
VWidth: 910
Flags: HW
LayerCount: 2
Fore
SplineSet
238 786 m 2
 261 819 l 1
 306 819 l 1
 350 819 l 1
 373 786 l 2
 386 769 416 727 441 693 c 2
 484 631 l 1
 440 631 l 1
 396 631 l 1
 351 694 l 2
 326 729 306 756 306 756 c 1
 306 756 285 729 260 694 c 2
 217 631 l 1
 172 631 l 1
 127 631 l 1
 171 693 l 2
 196 727 225 769 238 786 c 2
EndSplineSet
EndChar

StartChar: underscore
Encoding: 95 95 62
Width: 1128
VWidth: 910
Flags: HW
LayerCount: 2
Fore
SplineSet
0 -36 m 1
 0 0 l 1
 564 0 l 1
 1129 0 l 1
 1129 -36 l 1
 1129 -74 l 1
 564 -74 l 1
 0 -74 l 1
 0 -36 l 1
EndSplineSet
EndChar

StartChar: a
Encoding: 97 97 63
Width: 1034
VWidth: 910
Flags: HW
LayerCount: 2
Fore
SplineSet
421 619 m 0
 453 620 581 620 604 619 c 0
 693 616 756 607 808 591 c 0
 838 582 859 573 876 559 c 0
 894 545 909 523 917 498 c 0
 919 493 921 488 922 486 c 2
 925 482 l 1
 925 241 l 1
 925 0 l 1
 852 0 l 2
 792 1 777 1 769 2 c 0
 755 4 744 5 735 8 c 2
 728 10 l 1
 716 8 l 2
 688 3 652 -2 612 -4 c 0
 585 -6 445 -6 417 -4 c 0
 328 1 267 12 217 32 c 0
 185 45 161 60 146 80 c 0
 129 102 117 131 112 167 c 0
 110 183 110 227 112 243 c 0
 116 268 121 285 129 303 c 0
 139 323 151 337 166 350 c 0
 207 382 281 404 380 411 c 0
 411 414 431 414 480 415 c 0
 532 415 545 416 572 411 c 0
 597 407 612 409 642 416 c 0
 660 421 665 423 671 429 c 0
 680 437 686 448 690 461 c 0
 691 466 691 466 688 477 c 0
 687 483 685 493 683 498 c 0
 677 514 663 531 652 536 c 0
 634 544 598 547 487 546 c 0
 417 545 395 545 371 542 c 0
 357 541 355 539 350 533 c 0
 348 531 347 529 346 527 c 0
 342 520 343 517 347 499 c 0
 350 489 351 481 352 480 c 0
 352 478 346 478 231 478 c 2
 110 478 l 1
 110 500 l 2
 110 525 112 528 117 540 c 0
 128 562 153 579 191 592 c 0
 238 607 318 617 421 619 c 0
508 340 m 0
 475 344 426 340 407 334 c 0
 372 323 351 293 345 237 c 0
 343 224 343 186 345 173 c 0
 348 150 353 133 359 118 c 0
 373 90 392 76 424 72 c 0
 439 69 470 68 516 68 c 0
 578 68 597 71 613 76 c 0
 649 89 674 119 684 167 c 0
 690 194 692 223 692 290 c 2
 692 340 l 1
 686 340 l 1
 650 335 616 335 581 335 c 0
 550 336 537 337 508 340 c 0
EndSplineSet
EndChar

StartChar: b
Encoding: 98 98 64
Width: 1034
VWidth: 910
Flags: HW
LayerCount: 2
Fore
SplineSet
110 410 m 1
 110 819 l 1
 227 819 l 1
 343 819 l 1
 343 734 l 1
 343 648 l 1
 352 650 l 2
 365 651 400 654 419 655 c 0
 444 657 555 657 587 656 c 0
 640 654 678 650 714 643 c 0
 791 628 844 600 877 560 c 0
 911 518 925 469 929 390 c 0
 930 364 930 287 929 262 c 0
 926 203 918 165 902 130 c 0
 886 96 862 71 829 50 c 0
 782 21 714 3 625 -3 c 0
 593 -5 558 -5 496 -5 c 0
 408 -4 371 -2 318 6 c 2
 302 8 l 1
 290 6 l 2
 262 1 252 0 176 0 c 2
 110 0 l 1
 110 410 l 1
583 582 m 0
 575 583 476 584 457 583 c 0
 432 582 419 578 405 571 c 0
 375 556 358 527 349 482 c 0
 344 454 344 455 343 322 c 0
 343 194 343 182 347 161 c 0
 352 130 362 109 378 93 c 0
 384 87 387 85 394 81 c 0
 410 73 423 71 458 69 c 0
 485 68 573 68 583 70 c 0
 598 72 614 79 628 88 c 0
 637 94 653 111 660 121 c 0
 683 155 693 196 696 268 c 0
 697 295 697 387 695 406 c 0
 691 454 683 490 669 515 c 0
 659 534 643 552 628 563 c 0
 614 572 598 580 583 582 c 0
EndSplineSet
EndChar

StartChar: c
Encoding: 99 99 65
Width: 1034
VWidth: 910
Flags: HW
LayerCount: 2
Fore
SplineSet
451 619 m 0
 470 620 592 620 617 619 c 0
 711 616 777 608 827 594 c 0
 875 580 906 558 919 528 c 0
 924 516 925 510 925 485 c 2
 925 463 l 1
 804 463 l 2
 689 463 683 463 683 465 c 0
 684 466 685 474 688 484 c 0
 692 500 692 502 691 508 c 0
 690 516 685 526 679 532 c 0
 672 540 668 540 641 543 c 0
 608 546 468 547 450 544 c 0
 426 540 407 531 388 512 c 0
 363 487 348 453 342 403 c 0
 338 378 339 365 339 308 c 0
 339 250 338 237 342 212 c 0
 348 161 363 127 388 102 c 0
 399 91 408 84 420 78 c 0
 439 70 445 69 511 68 c 0
 600 67 659 71 671 76 c 0
 676 79 683 88 687 94 c 0
 689 98 690 102 691 106 c 0
 692 112 692 114 688 131 c 0
 685 140 684 148 683 149 c 0
 683 151 689 151 804 151 c 2
 925 151 l 1
 925 129 l 2
 925 104 924 98 919 86 c 0
 906 56 875 34 827 20 c 0
 776 5 710 -2 613 -5 c 0
 571 -6 446 -6 423 -4 c 0
 309 3 237 24 185 63 c 0
 142 94 117 142 109 209 c 0
 105 234 106 247 106 308 c 0
 106 368 105 380 109 406 c 0
 117 472 142 521 185 552 c 0
 241 594 323 614 451 619 c 0
EndSplineSet
EndChar

StartChar: d
Encoding: 100 100 66
Width: 1034
VWidth: 910
Flags: HW
LayerCount: 2
Fore
SplineSet
692 716 m 2
 692 819 l 1
 808 819 l 1
 925 819 l 1
 925 410 l 1
 925 0 l 1
 852 0 l 2
 774 1 770 1 745 6 c 0
 734 8 734 8 726 7 c 0
 703 2 668 -1 639 -3 c 0
 578 -7 465 -7 411 -3 c 0
 288 6 205 36 161 88 c 0
 132 123 117 165 112 232 c 0
 110 250 110 364 112 382 c 0
 117 449 132 491 161 526 c 0
 197 570 262 598 354 611 c 0
 400 618 441 620 521 620 c 0
 591 620 638 618 677 613 c 0
 684 613 691 613 691 613 c 2
 692 613 692 656 692 716 c 2
583 545 m 0
 559 546 479 546 462 545 c 0
 443 544 431 541 416 532 c 0
 381 511 359 473 350 420 c 0
 345 392 343 363 343 308 c 0
 343 216 350 174 368 137 c 0
 386 102 416 75 450 70 c 0
 462 68 544 67 579 69 c 0
 616 71 629 73 644 80 c 0
 650 84 654 86 660 92 c 0
 677 109 687 137 691 176 c 0
 692 191 692 425 691 440 c 0
 687 478 677 505 660 522 c 0
 654 528 650 530 644 534 c 0
 629 541 616 543 583 545 c 0
EndSplineSet
EndChar

StartChar: e
Encoding: 101 101 67
Width: 1007
VWidth: 910
Flags: HW
LayerCount: 2
Fore
SplineSet
441 619 m 0
 461 620 554 620 573 619 c 0
 666 615 730 601 781 576 c 0
 823 555 850 528 869 489 c 0
 885 454 894 416 897 359 c 0
 898 347 897 321 897 298 c 2
 897 258 l 1
 618 258 l 1
 338 258 l 1
 339 248 l 2
 342 192 347 160 361 132 c 0
 373 108 391 89 412 78 c 0
 418 75 426 73 431 72 c 0
 443 69 465 68 533 68 c 0
 594 69 614 70 634 72 c 0
 643 74 645 73 648 76 c 0
 656 82 662 93 664 103 c 0
 665 108 665 110 660 127 c 0
 658 137 656 146 655 147 c 0
 655 148 680 147 776 147 c 2
 897 147 l 1
 897 123 l 2
 896 100 897 97 895 92 c 0
 890 77 881 63 870 54 c 0
 857 42 836 31 816 24 c 0
 774 9 714 1 628 -4 c 0
 599 -6 466 -6 436 -5 c 0
 370 -2 324 3 281 15 c 0
 175 42 124 97 110 193 c 0
 106 218 106 230 105 282 c 0
 105 351 106 387 112 419 c 0
 121 472 138 508 169 539 c 0
 219 589 307 614 441 619 c 0
552 545 m 0
 538 546 468 546 452 545 c 0
 428 543 410 534 390 515 c 0
 358 482 343 435 339 356 c 0
 338 344 338 334 338 333 c 2
 338 331 l 1
 502 331 l 1
 664 331 l 1
 664 333 l 2
 664 334 665 344 664 356 c 0
 661 412 654 446 639 477 c 0
 627 503 607 524 585 536 c 0
 573 542 567 544 552 545 c 0
EndSplineSet
EndChar

StartChar: f
Encoding: 102 102 68
Width: 764
VWidth: 910
Flags: HW
LayerCount: 2
Fore
SplineSet
380 824 m 0
 428 827 486 823 529 817 c 0
 591 809 635 792 669 766 c 0
 704 740 725 690 732 621 c 0
 736 594 735 580 736 524 c 2
 736 468 l 1
 678 468 l 1
 619 468 l 1
 619 439 l 1
 619 410 l 1
 482 411 l 1
 343 411 l 1
 343 206 l 1
 343 0 l 1
 227 0 l 1
 110 0 l 1
 110 291 l 2
 111 589 111 587 115 621 c 0
 121 681 138 726 165 755 c 0
 184 776 218 794 259 806 c 0
 293 815 335 821 380 824 c 0
439 748 m 0
 434 751 431 751 423 751 c 0
 415 751 414 751 409 748 c 0
 374 732 352 681 346 603 c 0
 344 582 343 551 343 517 c 2
 343 484 l 1
 421 484 l 1
 499 484 l 1
 500 488 l 2
 504 502 503 502 503 526 c 0
 503 551 503 584 501 603 c 0
 495 681 473 732 439 748 c 0
EndSplineSet
EndChar

StartChar: g
Encoding: 103 103 69
Width: 1034
VWidth: 910
Flags: HW
LayerCount: 2
Fore
SplineSet
451 619 m 0
 455 619 487 620 523 620 c 0
 621 620 675 618 733 612 c 0
 749 610 751 610 761 611 c 0
 781 614 795 614 860 614 c 2
 925 614 l 1
 925 264 l 1
 925 -86 l 1
 922 -95 l 2
 917 -114 908 -129 894 -144 c 0
 876 -161 852 -174 817 -183 c 0
 774 -196 720 -204 655 -208 c 0
 587 -212 447 -212 380 -208 c 0
 288 -203 212 -188 174 -167 c 0
 142 -151 121 -126 113 -95 c 0
 111 -87 111 -85 110 -60 c 2
 110 -35 l 1
 231 -35 l 2
 346 -35 352 -34 352 -36 c 0
 351 -37 350 -46 347 -55 c 2
 343 -71 l 1
 344 -80 l 2
 346 -95 352 -108 363 -120 c 0
 370 -128 375 -130 390 -132 c 0
 414 -136 432 -136 518 -136 c 0
 603 -136 621 -136 645 -132 c 0
 660 -130 665 -128 672 -120 c 0
 679 -112 683 -105 687 -96 c 0
 691 -84 692 -80 692 -39 c 2
 692 -1 l 1
 686 -1 l 1
 654 -5 586 -5 508 -5 c 0
 429 -4 404 -3 362 2 c 0
 262 15 192 45 155 91 c 0
 130 123 114 159 109 209 c 0
 105 234 106 247 106 308 c 0
 106 368 105 380 109 406 c 0
 117 472 142 521 185 552 c 0
 241 594 323 614 451 619 c 0
602 545 m 0
 571 546 478 546 461 545 c 0
 441 544 432 541 417 534 c 0
 395 523 375 503 362 478 c 0
 349 453 344 425 340 379 c 0
 338 360 338 255 340 237 c 0
 344 191 349 162 362 137 c 0
 378 106 406 81 435 73 c 0
 448 69 455 69 511 68 c 0
 600 67 659 71 671 76 c 0
 679 81 689 94 691 105 c 0
 692 113 692 502 691 510 c 0
 689 520 681 533 672 538 c 0
 667 542 645 544 602 545 c 0
EndSplineSet
EndChar

StartChar: h
Encoding: 104 104 70
Width: 1034
VWidth: 910
Flags: HW
LayerCount: 2
Fore
SplineSet
110 410 m 1
 110 819 l 1
 227 819 l 1
 343 819 l 1
 343 717 l 1
 343 615 l 1
 349 615 l 2
 362 617 386 618 421 619 c 0
 464 620 588 620 612 618 c 0
 724 611 795 591 846 553 c 0
 891 520 914 471 921 400 c 0
 925 373 925 349 925 175 c 2
 925 0 l 1
 808 0 l 1
 692 0 l 1
 692 174 l 2
 692 346 692 370 688 397 c 0
 683 451 669 487 644 513 c 0
 626 531 605 541 584 544 c 0
 572 546 478 546 438 545 c 0
 387 543 368 542 362 537 c 0
 353 532 346 520 344 510 c 0
 343 507 343 418 343 252 c 2
 343 0 l 1
 227 0 l 1
 110 0 l 1
 110 410 l 1
EndSplineSet
EndChar

StartChar: i
Encoding: 105 105 71
Width: 533
VWidth: 910
Flags: HW
LayerCount: 2
Fore
SplineSet
238 753 m 0
 280 757 330 751 358 740 c 0
 383 731 390 717 378 705 c 0
 360 687 296 676 240 681 c 0
 174 686 139 705 154 726 c 0
 164 739 197 749 238 753 c 0
150 308 m 1
 150 614 l 1
 267 614 l 1
 383 614 l 1
 383 308 l 1
 383 0 l 1
 267 0 l 1
 150 0 l 1
 150 308 l 1
EndSplineSet
EndChar

StartChar: j
Encoding: 106 106 72
Width: 736
VWidth: 910
Flags: HW
LayerCount: 2
Fore
SplineSet
482 753 m 0
 524 757 573 751 601 740 c 0
 626 731 633 717 621 705 c 0
 603 687 539 676 483 681 c 0
 417 686 382 705 397 726 c 0
 407 739 441 749 482 753 c 0
393 354 m 2
 393 614 l 1
 510 614 l 1
 626 614 l 1
 626 353 l 2
 625 82 626 81 622 37 c 0
 617 -24 604 -71 585 -106 c 0
 555 -162 486 -196 378 -207 c 0
 338 -212 288 -212 248 -207 c 0
 140 -196 71 -162 41 -106 c 0
 22 -71 10 -24 5 37 c 0
 2 72 1 90 0 159 c 2
 0 226 l 1
 121 226 l 2
 236 226 242 226 242 224 c 0
 241 223 240 215 237 206 c 2
 233 188 l 1
 233 142 l 2
 234 92 235 72 238 40 c 0
 244 -31 259 -83 281 -109 c 0
 289 -120 308 -134 313 -134 c 0
 318 -134 337 -120 345 -109 c 0
 367 -83 383 -31 389 40 c 0
 393 84 392 85 393 354 c 2
EndSplineSet
EndChar

StartChar: k
Encoding: 107 107 73
Width: 979
VWidth: 910
Flags: HW
LayerCount: 2
Fore
SplineSet
110 410 m 1
 110 819 l 1
 227 819 l 1
 343 819 l 1
 343 614 l 1
 344 411 l 1
 551 531 l 1
 758 652 l 1
 874 652 l 1
 990 652 l 1
 739 521 l 2
 602 448 488 389 487 389 c 1
 487 388 547 339 724 197 c 0
 854 91 962 4 963 3 c 2
 967 0 l 1
 850 0 l 1
 734 0 l 1
 557 167 l 2
 461 258 380 332 380 332 c 2
 379 332 371 328 361 323 c 2
 344 313 l 1
 343 157 l 1
 343 0 l 1
 227 0 l 1
 110 0 l 1
 110 410 l 1
EndSplineSet
EndChar

StartChar: l
Encoding: 108 108 74
Width: 533
VWidth: 910
Flags: HW
LayerCount: 2
Fore
SplineSet
150 410 m 1
 150 819 l 1
 267 819 l 1
 383 819 l 1
 383 410 l 1
 383 0 l 1
 267 0 l 1
 150 0 l 1
 150 410 l 1
EndSplineSet
EndChar

StartChar: m
Encoding: 109 109 75
Width: 1473
VWidth: 910
Flags: HW
LayerCount: 2
Fore
SplineSet
406 619 m 0
 429 620 548 619 564 618 c 0
 637 613 686 602 727 585 c 2
 737 582 l 1
 745 585 l 2
 786 602 840 613 912 618 c 0
 937 620 1047 620 1072 618 c 0
 1165 612 1229 595 1274 566 c 0
 1291 554 1301 547 1313 533 c 0
 1339 501 1355 459 1360 403 c 0
 1364 376 1364 349 1364 175 c 2
 1364 0 l 1
 1247 0 l 1
 1130 0 l 1
 1130 174 l 2
 1130 346 1131 373 1127 400 c 0
 1122 456 1106 495 1081 520 c 0
 1072 529 1066 534 1055 539 c 0
 1042 546 1042 546 992 546 c 0
 942 546 942 546 929 539 c 0
 918 534 912 529 903 520 c 0
 878 495 862 456 857 400 c 0
 853 373 854 346 854 174 c 2
 854 0 l 1
 737 0 l 1
 621 0 l 1
 621 171 l 2
 621 344 621 371 617 400 c 0
 612 456 597 495 572 520 c 0
 560 533 546 540 533 544 c 0
 527 546 457 547 430 545 c 0
 407 544 400 543 390 538 c 0
 365 525 352 501 345 456 c 0
 344 446 344 429 343 238 c 2
 343 32 l 1
 340 29 l 1
 339 26 l 1
 340 15 l 2
 341 10 342 3 343 2 c 2
 343 0 l 1
 227 0 l 1
 110 0 l 1
 110 308 l 1
 110 614 l 1
 183 614 l 2
 258 613 259 614 283 610 c 2
 294 608 l 1
 309 610 l 2
 335 615 368 617 406 619 c 0
EndSplineSet
EndChar

StartChar: n
Encoding: 110 110 76
Width: 1034
VWidth: 910
Flags: HW
LayerCount: 2
Fore
SplineSet
432 619 m 0
 458 620 593 619 612 618 c 0
 724 611 795 591 846 553 c 0
 891 520 914 471 921 400 c 0
 925 373 925 349 925 175 c 2
 925 0 l 1
 808 0 l 1
 692 0 l 1
 692 174 l 2
 692 346 692 370 688 397 c 0
 683 451 669 487 644 513 c 0
 626 531 605 541 584 544 c 0
 571 546 485 546 456 545 c 0
 419 543 405 541 390 534 c 0
 384 530 381 528 375 522 c 0
 360 507 351 486 346 455 c 2
 344 443 l 1
 343 238 l 1
 343 32 l 1
 340 29 l 1
 339 26 l 1
 340 15 l 2
 341 10 342 3 343 2 c 2
 343 0 l 1
 227 0 l 1
 110 0 l 1
 110 308 l 1
 110 614 l 1
 176 614 l 2
 252 614 267 613 292 608 c 0
 300 606 302 606 309 607 c 0
 341 612 384 617 432 619 c 0
EndSplineSet
EndChar

StartChar: o
Encoding: 111 111 77
Width: 1167
VWidth: 910
Flags: HW
LayerCount: 2
Fore
SplineSet
489 619 m 0
 520 620 645 620 675 619 c 0
 771 615 840 607 900 589 c 0
 945 576 980 561 1008 539 c 0
 1046 511 1071 467 1082 410 c 0
 1088 378 1090 357 1090 308 c 0
 1090 283 1090 261 1089 254 c 0
 1084 203 1075 170 1060 139 c 0
 1044 106 1022 83 990 63 c 0
 930 27 838 3 719 -3 c 0
 651 -7 517 -7 450 -3 c 0
 317 4 220 31 160 76 c 0
 122 104 97 148 86 205 c 0
 80 237 78 258 78 308 c 0
 78 333 78 353 79 360 c 0
 84 411 92 444 107 475 c 0
 121 501 138 523 160 539 c 0
 226 588 332 614 489 619 c 0
682 544 m 0
 669 545 536 546 515 545 c 0
 458 543 427 538 399 525 c 0
 352 502 324 456 315 381 c 0
 311 356 311 345 311 308 c 0
 311 270 311 258 315 233 c 0
 321 179 337 141 363 115 c 0
 391 87 426 75 488 70 c 0
 512 68 656 68 680 70 c 0
 742 75 777 87 805 115 c 0
 835 145 850 186 856 257 c 0
 858 273 858 342 856 358 c 0
 850 429 835 470 805 500 c 0
 778 527 743 539 682 544 c 0
EndSplineSet
EndChar

StartChar: p
Encoding: 112 112 78
Width: 1007
VWidth: 910
Flags: HW
LayerCount: 2
Fore
SplineSet
422 619 m 0
 447 620 582 619 601 618 c 0
 669 613 721 606 764 591 c 0
 842 566 887 525 908 460 c 0
 921 421 925 385 925 308 c 0
 925 230 921 194 908 155 c 0
 887 90 842 49 764 24 c 0
 721 9 668 1 598 -4 c 0
 573 -6 432 -6 405 -4 c 0
 385 -3 360 -1 349 1 c 2
 343 1 l 1
 343 -85 l 2
 343 -170 343 -170 341 -175 c 2
 340 -178 l 1
 341 -191 l 2
 342 -198 343 -204 343 -205 c 2
 227 -205 l 1
 110 -205 l 1
 110 205 l 1
 110 614 l 1
 183 614 l 2
 259 613 261 614 283 610 c 0
 297 607 299 607 319 610 c 0
 347 615 382 617 422 619 c 0
560 545 m 0
 542 546 463 546 441 545 c 0
 407 543 391 539 377 526 c 0
 361 511 350 486 345 452 c 0
 344 440 344 432 344 308 c 0
 344 160 344 163 350 138 c 0
 360 101 377 81 406 74 c 0
 420 70 433 69 488 68 c 0
 564 68 585 69 603 77 c 0
 645 94 673 133 684 189 c 0
 690 221 691 242 691 308 c 0
 691 363 691 374 687 400 c 0
 684 427 677 454 668 473 c 0
 651 509 620 535 585 542 c 0
 580 543 569 544 560 545 c 0
EndSplineSet
EndChar

StartChar: q
Encoding: 113 113 79
Width: 1007
VWidth: 910
Flags: HW
LayerCount: 2
Fore
SplineSet
437 619 m 0
 441 620 476 620 516 619 c 0
 586 619 604 619 639 615 c 0
 652 614 669 614 725 614 c 0
 794 614 808 615 829 611 c 0
 864 606 892 596 897 583 c 0
 898 581 897 522 897 205 c 2
 897 -170 l 1
 896 -175 l 1
 894 -178 l 1
 896 -191 l 2
 897 -198 897 -204 897 -205 c 2
 781 -205 l 1
 664 -205 l 1
 664 -102 l 1
 664 1 l 1
 659 1 l 2
 648 -1 622 -3 603 -4 c 0
 575 -6 435 -6 410 -4 c 0
 340 1 287 9 244 24 c 0
 166 49 120 90 99 155 c 0
 86 194 83 230 83 308 c 0
 83 385 86 421 99 460 c 0
 120 525 166 566 244 591 c 0
 293 607 351 616 437 619 c 0
583 544 m 0
 569 545 464 546 445 545 c 0
 415 543 395 536 375 520 c 0
 344 495 326 456 320 400 c 0
 316 374 317 363 317 308 c 0
 317 252 316 240 320 214 c 0
 323 187 331 160 340 141 c 0
 357 105 387 79 422 72 c 0
 437 69 464 68 521 68 c 0
 575 69 588 70 602 74 c 0
 631 81 648 101 658 138 c 0
 664 163 664 160 664 308 c 0
 664 432 664 440 663 452 c 0
 659 477 653 497 643 512 c 0
 629 532 612 541 583 544 c 0
EndSplineSet
EndChar

StartChar: r
Encoding: 114 114 80
Width: 916
VWidth: 910
Flags: HW
LayerCount: 2
Fore
SplineSet
407 619 m 0
 433 620 551 620 584 619 c 0
 660 616 712 612 756 602 c 0
 815 589 852 564 859 533 c 0
 861 529 861 523 861 507 c 2
 861 485 l 1
 742 485 l 1
 624 485 l 1
 624 487 l 2
 626 493 628 522 628 526 c 0
 627 531 625 536 621 540 c 0
 618 543 617 542 606 543 c 0
 587 545 544 546 494 546 c 0
 420 546 402 544 387 538 c 0
 370 529 355 508 349 481 c 0
 344 458 344 472 343 243 c 2
 343 32 l 1
 340 29 l 1
 339 26 l 1
 340 15 l 2
 341 10 342 3 343 2 c 2
 343 0 l 1
 227 0 l 1
 110 0 l 1
 110 308 l 1
 110 614 l 1
 183 614 l 2
 258 613 260 614 282 610 c 2
 293 608 l 1
 308 611 l 2
 335 615 371 617 407 619 c 0
EndSplineSet
EndChar

StartChar: s
Encoding: 115 115 81
Width: 1034
VWidth: 910
Flags: HW
LayerCount: 2
Fore
SplineSet
426 619 m 0
 481 621 616 620 664 617 c 0
 760 612 832 598 869 578 c 0
 899 562 918 539 923 514 c 0
 925 509 925 501 925 485 c 2
 925 463 l 1
 806 463 l 1
 687 463 l 1
 687 467 l 2
 688 469 689 477 690 486 c 0
 693 504 692 511 687 521 c 0
 684 526 677 535 672 538 c 0
 664 543 616 546 522 546 c 0
 427 546 394 543 377 535 c 0
 364 528 351 511 344 489 c 0
 339 474 339 464 339 446 c 0
 339 430 339 422 343 410 c 0
 354 376 383 351 422 342 c 0
 434 339 457 339 480 342 c 0
 518 347 558 350 599 349 c 0
 630 348 643 347 671 344 c 0
 760 334 830 310 875 274 c 0
 892 260 908 239 915 220 c 0
 933 175 926 116 897 78 c 0
 879 54 855 39 814 25 c 0
 768 10 710 1 628 -4 c 0
 602 -6 463 -6 421 -5 c 0
 324 -2 259 5 208 20 c 0
 160 34 129 56 116 86 c 0
 111 98 110 104 110 129 c 2
 110 151 l 1
 229 151 l 1
 348 151 l 1
 348 147 l 2
 347 145 346 137 345 128 c 0
 342 110 343 104 348 94 c 0
 351 89 358 79 363 76 c 0
 371 71 418 68 512 68 c 0
 604 68 635 71 652 79 c 0
 670 88 685 113 690 144 c 0
 691 149 691 157 691 168 c 0
 691 184 690 193 686 206 c 0
 675 239 645 264 606 273 c 0
 595 275 574 275 554 272 c 0
 490 264 415 264 352 271 c 0
 265 281 196 305 154 340 c 0
 122 367 105 404 105 445 c 0
 105 492 124 535 156 559 c 0
 171 571 189 579 214 588 c 0
 266 605 336 616 426 619 c 0
EndSplineSet
EndChar

StartChar: t
Encoding: 116 116 82
Width: 736
VWidth: 910
Flags: HW
LayerCount: 2
Fore
SplineSet
251 717 m 1
 251 819 l 1
 369 819 l 1
 485 819 l 1
 485 717 l 1
 485 614 l 1
 583 614 l 1
 681 614 l 1
 681 578 l 1
 681 541 l 1
 583 541 l 1
 485 541 l 1
 485 270 l 1
 485 0 l 1
 369 0 l 1
 251 0 l 1
 251 270 l 1
 251 541 l 1
 154 541 l 1
 56 541 l 1
 56 578 l 1
 56 614 l 1
 154 614 l 1
 251 614 l 1
 251 717 l 1
EndSplineSet
EndChar

StartChar: u
Encoding: 117 117 83
Width: 1034
VWidth: 910
Flags: HW
LayerCount: 2
Fore
SplineSet
110 440 m 2
 110 614 l 1
 227 614 l 1
 343 614 l 1
 343 441 l 2
 343 269 343 245 347 218 c 0
 352 164 366 127 391 101 c 0
 409 83 429 73 451 70 c 0
 463 68 550 68 579 69 c 0
 616 71 629 73 644 80 c 0
 650 84 654 86 660 92 c 0
 675 107 684 128 689 159 c 2
 691 172 l 1
 692 393 l 1
 692 614 l 1
 808 614 l 1
 925 614 l 1
 925 326 l 1
 925 37 l 1
 928 19 l 2
 929 9 929 0 929 0 c 1
 855 0 l 2
 774 1 770 1 745 6 c 0
 736 8 734 8 729 7 c 0
 696 2 650 -3 596 -5 c 0
 561 -6 448 -6 424 -4 c 0
 311 3 240 24 189 62 c 0
 144 95 121 144 114 215 c 0
 110 242 110 266 110 440 c 2
EndSplineSet
EndChar

StartChar: v
Encoding: 118 118 84
Width: 979
VWidth: 910
Flags: HW
LayerCount: 2
Fore
SplineSet
86 575 m 2
 68 614 l 1
 185 614 l 1
 301 614 l 1
 395 330 l 2
 447 173 490 45 490 45 c 1
 490 45 532 173 584 330 c 2
 678 614 l 1
 795 614 l 1
 911 614 l 1
 894 575 l 2
 884 553 823 415 757 268 c 2
 639 0 l 1
 490 0 l 1
 340 0 l 1
 222 268 l 2
 156 415 96 553 86 575 c 2
EndSplineSet
EndChar

StartChar: w
Encoding: 119 119 85
Width: 1543
VWidth: 910
Flags: HW
LayerCount: 2
Fore
SplineSet
22 610 m 2
 20 614 l 1
 137 614 l 1
 253 614 l 1
 354 350 l 2
 410 205 456 87 456 86 c 0
 456 85 508 204 573 350 c 2
 690 614 l 1
 772 614 l 1
 854 614 l 1
 970 350 l 2
 1035 204 1088 85 1088 86 c 0
 1088 87 1134 205 1190 350 c 2
 1291 614 l 1
 1407 614 l 1
 1524 614 l 1
 1522 610 l 2
 1521 608 1469 470 1404 303 c 2
 1288 0 l 1
 1090 0 l 1
 891 0 l 1
 832 182 l 2
 799 282 772 364 772 364 c 1
 772 364 745 282 712 182 c 2
 653 0 l 1
 454 0 l 1
 256 0 l 1
 140 303 l 2
 75 470 23 608 22 610 c 2
EndSplineSet
EndChar

StartChar: x
Encoding: 120 120 86
Width: 979
VWidth: 910
Flags: HW
LayerCount: 2
Fore
SplineSet
107 609 m 2
 102 614 l 1
 218 614 l 1
 335 614 l 1
 411 518 l 2
 454 464 490 421 490 421 c 1
 490 421 525 464 568 518 c 2
 644 614 l 1
 761 614 l 1
 877 614 l 1
 872 609 l 2
 869 606 801 540 720 461 c 0
 638 383 572 318 572 318 c 2
 572 317 875 21 890 6 c 2
 897 0 l 1
 780 0 l 1
 664 0 l 1
 577 107 l 2
 530 166 490 216 490 216 c 1
 490 216 449 166 402 107 c 2
 316 0 l 1
 199 0 l 1
 83 0 l 1
 89 6 l 2
 104 21 408 317 408 318 c 2
 408 318 341 383 260 461 c 0
 178 540 110 606 107 609 c 2
EndSplineSet
EndChar

StartChar: y
Encoding: 121 121 87
Width: 979
VWidth: 910
Flags: HW
LayerCount: 2
Fore
SplineSet
84 580 m 2
 63 614 l 1
 179 614 l 1
 296 614 l 1
 387 423 l 1
 478 232 l 1
 581 423 l 1
 684 614 l 1
 800 614 l 1
 917 614 l 1
 913 607 l 2
 910 603 812 419 693 198 c 2
 477 -205 l 1
 360 -205 l 2
 258 -205 244 -205 244 -204 c 0
 245 -203 278 -141 317 -67 c 0
 357 7 390 67 390 68 c 2
 390 68 325 176 247 307 c 0
 169 439 95 561 84 580 c 2
EndSplineSet
EndChar

StartChar: z
Encoding: 122 122 88
Width: 979
VWidth: 910
Flags: HW
LayerCount: 2
Fore
SplineSet
83 578 m 1
 83 614 l 1
 510 614 l 1
 936 614 l 1
 933 612 l 2
 931 610 922 601 914 593 c 0
 899 579 897 577 896 573 c 0
 895 570 893 568 889 564 c 0
 885 560 766 450 623 317 c 2
 362 75 l 1
 630 74 l 1
 897 74 l 1
 897 36 l 1
 897 0 l 1
 470 0 l 1
 44 0 l 1
 46 3 l 2
 48 5 58 13 66 21 c 0
 81 35 83 37 84 41 c 0
 85 44 86 46 90 50 c 0
 94 54 214 165 357 299 c 2
 617 541 l 1
 350 541 l 1
 83 541 l 1
 83 578 l 1
EndSplineSet
EndChar

StartChar: braceleft
Encoding: 123 123 89
Width: 548
VWidth: 910
Flags: HW
LayerCount: 2
Fore
SplineSet
334 882 m 0
 349 883 394 882 409 881 c 0
 443 877 468 870 482 861 c 0
 505 846 493 828 456 818 c 0
 447 815 426 811 421 811 c 0
 415 811 404 794 399 771 c 0
 391 740 388 702 388 626 c 0
 388 536 383 496 370 461 c 0
 363 441 351 422 337 411 c 2
 334 410 l 1
 337 408 l 2
 351 397 363 379 370 359 c 0
 383 324 388 283 388 194 c 0
 388 117 391 79 399 48 c 0
 404 25 415 8 421 8 c 0
 426 8 447 4 456 1 c 0
 493 -9 505 -27 482 -42 c 0
 468 -51 443 -57 408 -62 c 0
 387 -64 340 -64 320 -62 c 0
 273 -57 239 -45 213 -28 c 0
 202 -21 195 -15 188 -5 c 0
 172 16 162 47 158 93 c 0
 155 115 155 144 155 191 c 0
 155 253 153 285 148 314 c 0
 143 340 136 362 127 372 c 0
 125 375 125 375 111 378 c 0
 85 383 65 390 56 399 c 0
 39 415 61 433 111 441 c 0
 125 444 125 444 127 447 c 0
 136 457 143 479 148 505 c 0
 153 534 155 566 155 629 c 0
 155 704 158 741 166 772 c 0
 177 816 194 839 230 857 c 0
 255 870 291 878 334 882 c 0
EndSplineSet
EndChar

StartChar: bar
Encoding: 124 124 90
Width: 611
VWidth: 910
Flags: HW
LayerCount: 2
Fore
SplineSet
189 410 m 1
 189 819 l 1
 306 819 l 1
 422 819 l 1
 422 410 l 1
 422 0 l 1
 306 0 l 1
 189 0 l 1
 189 410 l 1
EndSplineSet
EndChar

StartChar: braceright
Encoding: 125 125 91
Width: 548
VWidth: 910
Flags: HW
LayerCount: 2
Fore
SplineSet
151 882 m 0
 161 883 208 882 221 881 c 0
 297 872 342 848 363 807 c 0
 375 785 382 755 385 720 c 0
 386 714 386 706 387 704 c 0
 387 701 388 667 388 629 c 0
 389 546 390 529 396 498 c 0
 401 477 408 457 415 449 c 0
 418 445 419 445 428 443 c 0
 484 435 510 418 494 400 c 0
 485 389 461 381 428 376 c 0
 419 374 418 374 415 370 c 0
 408 362 401 342 396 321 c 0
 390 290 389 273 388 190 c 0
 388 152 387 119 387 117 c 0
 386 114 386 105 385 99 c 0
 380 43 365 4 340 -18 c 0
 314 -41 276 -56 220 -62 c 0
 203 -64 153 -64 136 -62 c 0
 88 -57 56 -48 47 -34 c 0
 35 -17 62 0 114 8 c 2
 124 9 l 1
 127 14 l 2
 140 29 148 61 152 102 c 0
 153 108 153 115 154 118 c 0
 154 121 154 155 155 193 c 0
 155 231 156 268 157 275 c 0
 162 345 177 383 208 407 c 2
 211 410 l 1
 208 412 l 2
 177 436 162 474 157 545 c 0
 156 551 155 588 155 626 c 0
 154 664 154 698 154 701 c 0
 153 704 153 711 152 717 c 0
 148 758 140 791 127 806 c 2
 124 810 l 1
 114 811 l 2
 70 818 45 831 45 846 c 0
 45 862 81 876 136 881 c 0
 142 882 149 882 151 882 c 0
EndSplineSet
EndChar

StartChar: asciitilde
Encoding: 126 126 92
Width: 1238
VWidth: 910
Flags: HW
LayerCount: 2
Fore
SplineSet
334 478 m 0
 349 479 472 478 486 477 c 0
 564 472 619 460 661 441 c 0
 699 423 720 399 730 360 c 0
 735 345 735 334 736 309 c 0
 737 295 738 281 738 276 c 0
 743 245 756 222 772 215 c 0
 782 210 786 210 844 210 c 0
 901 210 905 210 915 215 c 0
 928 221 939 236 945 259 c 0
 949 274 949 283 950 314 c 2
 950 344 l 1
 1067 344 l 1
 1183 344 l 1
 1183 313 l 2
 1182 279 1182 272 1177 255 c 0
 1170 227 1156 205 1136 190 c 0
 1101 165 1041 146 964 140 c 0
 929 136 913 137 844 137 c 0
 764 137 735 138 694 143 c 0
 628 152 581 167 551 190 c 0
 531 205 517 227 510 255 c 0
 505 270 504 281 503 306 c 0
 502 320 502 335 502 340 c 0
 497 370 484 393 468 400 c 0
 459 405 453 405 396 405 c 0
 339 405 333 405 324 400 c 0
 308 393 295 371 290 340 c 0
 289 333 290 321 289 300 c 2
 289 270 l 1
 172 270 l 1
 56 270 l 1
 56 301 l 2
 57 335 57 343 62 360 c 0
 70 395 87 417 117 434 c 0
 152 454 208 469 275 474 c 0
 288 476 308 477 334 478 c 0
EndSplineSet
EndChar

StartChar: Adieresis
Encoding: 196 196 93
Width: 1167
VWidth: 910
Flags: HW
LayerCount: 2
Fore
SplineSet
392 955 m 0
 434 959 484 953 512 942 c 0
 537 933 544 919 532 907 c 0
 514 889 450 878 394 883 c 0
 328 888 293 907 308 928 c 0
 318 941 351 951 392 955 c 0
719 955 m 0
 761 959 810 953 838 942 c 0
 863 933 870 919 858 907 c 0
 840 889 777 878 721 883 c 0
 655 888 619 907 634 928 c 0
 644 941 678 951 719 955 c 0
435 816 m 2
 436 819 l 1
 584 819 l 1
 732 819 l 1
 916 411 l 2
 1017 186 1100 1 1100 1 c 2
 1100 0 1048 0 983 0 c 2
 867 0 l 1
 817 137 l 1
 767 274 l 1
 584 274 l 1
 400 274 l 1
 350 137 l 1
 301 0 l 1
 185 0 l 2
 120 0 68 0 68 1 c 2
 68 1 432 811 435 816 c 2
663 562 m 0
 621 678 585 774 585 776 c 0
 584 779 579 764 506 563 c 0
 463 446 428 349 428 349 c 2
 428 348 498 348 584 348 c 0
 732 348 740 348 740 350 c 0
 740 351 705 446 663 562 c 0
EndSplineSet
EndChar

StartChar: Ccedilla
Encoding: 199 199 94
Width: 1097
VWidth: 910
Flags: HW
LayerCount: 2
Fore
SplineSet
482 824 m 0
 527 826 656 825 707 822 c 0
 836 816 925 796 969 765 c 0
 993 747 1011 724 1018 699 c 0
 1020 690 1019 689 1020 664 c 2
 1020 637 l 1
 899 637 l 2
 803 637 778 637 778 638 c 0
 779 639 781 647 784 657 c 2
 787 674 l 1
 786 684 l 2
 785 694 781 704 776 713 c 0
 771 720 760 732 754 736 c 0
 741 744 705 748 638 750 c 0
 589 752 500 751 485 749 c 0
 453 744 430 733 406 709 c 0
 385 688 371 663 360 629 c 0
 351 602 346 575 342 538 c 0
 338 505 339 488 339 410 c 0
 339 332 338 314 342 281 c 0
 346 244 351 217 360 191 c 0
 371 156 385 131 406 110 c 0
 430 86 453 75 485 70 c 0
 500 68 589 67 638 69 c 0
 705 71 741 75 754 83 c 0
 760 87 771 99 776 106 c 0
 781 115 785 126 786 136 c 2
 787 145 l 1
 784 162 l 2
 781 172 779 180 778 181 c 0
 778 182 803 182 899 182 c 2
 1020 182 l 1
 1020 156 l 2
 1019 131 1020 129 1018 121 c 0
 1014 108 1007 93 998 82 c 0
 985 65 970 53 947 41 c 0
 905 21 837 6 745 0 c 0
 735 -1 727 -2 725 -2 c 2
 723 -2 l 1
 725 -6 l 2
 733 -25 731 -50 721 -68 c 0
 716 -76 706 -85 697 -90 c 0
 682 -97 693 -96 560 -97 c 0
 459 -97 442 -98 447 -96 c 0
 461 -94 470 -88 479 -79 c 0
 485 -72 489 -65 493 -56 c 0
 498 -41 498 -26 493 -11 c 2
 492 -5 l 1
 475 -5 l 2
 411 -2 353 6 307 20 c 0
 211 48 155 98 127 183 c 0
 115 219 110 255 106 311 c 0
 104 336 104 484 106 509 c 0
 110 565 115 600 127 636 c 0
 152 714 201 763 283 792 c 0
 334 810 399 820 482 824 c 0
EndSplineSet
EndChar

StartChar: Odieresis
Encoding: 214 214 95
Width: 1419
VWidth: 910
Flags: HW
LayerCount: 2
Fore
SplineSet
518 955 m 0
 560 959 609 953 637 942 c 0
 662 933 669 919 657 907 c 0
 639 889 576 878 520 883 c 0
 454 888 418 907 433 928 c 0
 443 941 477 951 518 955 c 0
845 955 m 0
 887 959 936 953 964 942 c 0
 989 933 996 919 984 907 c 0
 966 889 903 878 847 883 c 0
 781 888 745 907 760 928 c 0
 770 941 804 951 845 955 c 0
613 824 m 0
 638 825 828 824 847 823 c 0
 916 819 967 814 1015 806 c 0
 1109 790 1179 764 1232 725 c 0
 1292 679 1327 607 1337 505 c 0
 1341 474 1341 460 1341 410 c 0
 1341 352 1339 324 1334 289 c 0
 1320 200 1287 137 1232 95 c 0
 1159 40 1047 9 890 -1 c 0
 839 -5 819 -5 710 -5 c 0
 600 -5 580 -5 530 -1 c 0
 372 9 260 40 187 95 c 0
 127 141 92 212 82 315 c 0
 78 345 78 360 78 410 c 0
 78 468 80 496 85 531 c 0
 99 620 132 683 187 725 c 0
 267 785 392 816 576 823 c 0
 590 824 607 824 613 824 c 0
829 749 m 0
 814 750 651 751 625 750 c 0
 520 748 464 735 417 706 c 0
 358 670 325 603 315 502 c 0
 311 471 311 457 311 410 c 0
 311 354 313 326 318 291 c 0
 333 195 369 136 435 103 c 0
 475 83 516 74 592 70 c 0
 620 68 799 68 827 70 c 0
 903 74 944 83 984 103 c 0
 1050 136 1086 195 1101 291 c 0
 1106 326 1108 354 1108 410 c 0
 1108 466 1106 493 1101 528 c 0
 1086 624 1050 683 984 716 c 0
 945 736 903 744 829 749 c 0
EndSplineSet
EndChar

StartChar: Udieresis
Encoding: 220 220 96
Width: 1222
VWidth: 910
Flags: HW
LayerCount: 2
Fore
SplineSet
420 955 m 0
 462 959 511 953 539 942 c 0
 564 933 571 919 559 907 c 0
 541 889 477 878 421 883 c 0
 355 888 320 907 335 928 c 0
 345 941 379 951 420 955 c 0
746 955 m 0
 788 959 838 953 866 942 c 0
 891 933 898 919 886 907 c 0
 868 889 804 878 748 883 c 0
 682 888 647 907 662 928 c 0
 672 941 705 951 746 955 c 0
110 565 m 2
 110 819 l 1
 227 819 l 1
 343 819 l 1
 343 566 l 2
 344 307 344 307 348 273 c 0
 355 200 376 150 412 116 c 0
 439 91 470 77 510 72 c 0
 527 69 560 68 612 68 c 0
 663 68 696 69 713 72 c 0
 753 77 783 91 810 116 c 0
 846 150 868 200 875 273 c 0
 879 307 878 307 879 566 c 2
 879 819 l 1
 996 819 l 1
 1112 819 l 1
 1112 565 l 2
 1111 305 1112 304 1108 270 c 0
 1102 204 1083 154 1052 115 c 0
 997 47 897 8 744 -2 c 0
 708 -5 673 -5 612 -5 c 0
 514 -5 461 -3 405 5 c 0
 346 13 292 29 254 49 c 0
 242 54 225 66 215 73 c 0
 156 115 124 177 115 270 c 0
 111 304 111 305 110 565 c 2
EndSplineSet
EndChar

StartChar: adieresis
Encoding: 228 228 97
Width: 1034
VWidth: 910
Flags: HW
LayerCount: 2
Fore
SplineSet
326 750 m 0
 368 754 417 748 445 737 c 0
 470 728 477 715 465 703 c 0
 447 685 384 673 328 678 c 0
 262 683 226 703 241 724 c 0
 251 737 285 746 326 750 c 0
653 750 m 0
 695 754 744 748 772 737 c 0
 797 728 804 715 792 703 c 0
 774 685 710 673 654 678 c 0
 588 683 553 703 568 724 c 0
 578 737 612 746 653 750 c 0
421 619 m 0
 453 620 581 620 604 619 c 0
 693 616 756 607 808 591 c 0
 838 582 859 573 876 559 c 0
 894 545 909 523 917 498 c 0
 919 493 921 488 922 486 c 2
 925 482 l 1
 925 241 l 1
 925 0 l 1
 852 0 l 2
 792 1 777 1 769 2 c 0
 755 4 744 5 735 8 c 2
 728 10 l 1
 716 8 l 2
 688 3 652 -2 612 -4 c 0
 585 -6 445 -6 417 -4 c 0
 328 1 267 12 217 32 c 0
 185 45 161 60 146 80 c 0
 129 102 117 131 112 167 c 0
 110 183 110 227 112 243 c 0
 116 268 121 285 129 303 c 0
 139 323 151 337 166 350 c 0
 207 382 281 404 380 411 c 0
 411 414 431 414 480 415 c 0
 532 415 545 416 572 411 c 0
 597 407 612 409 642 416 c 0
 660 421 665 423 671 429 c 0
 680 437 686 448 690 461 c 0
 691 466 691 466 688 477 c 0
 687 483 685 493 683 498 c 0
 677 514 663 531 652 536 c 0
 634 544 598 547 487 546 c 0
 417 545 395 545 371 542 c 0
 357 541 355 539 350 533 c 0
 348 531 347 529 346 527 c 0
 342 520 343 517 347 499 c 0
 350 489 351 481 352 480 c 0
 352 478 346 478 231 478 c 2
 110 478 l 1
 110 500 l 2
 110 525 112 528 117 540 c 0
 128 562 153 579 191 592 c 0
 238 607 318 617 421 619 c 0
508 340 m 0
 475 344 426 340 407 334 c 0
 372 323 351 293 345 237 c 0
 343 224 343 186 345 173 c 0
 348 150 353 133 359 118 c 0
 373 90 392 76 424 72 c 0
 439 69 470 68 516 68 c 0
 578 68 597 71 613 76 c 0
 649 89 674 119 684 167 c 0
 690 194 692 223 692 290 c 2
 692 340 l 1
 686 340 l 1
 650 335 616 335 581 335 c 0
 550 336 537 337 508 340 c 0
EndSplineSet
EndChar

StartChar: ccedilla
Encoding: 231 231 98
Width: 1034
VWidth: 910
Flags: HW
LayerCount: 2
Fore
SplineSet
451 619 m 0
 470 620 592 620 617 619 c 0
 711 616 777 608 827 594 c 0
 875 580 906 558 919 528 c 0
 924 516 925 510 925 485 c 2
 925 463 l 1
 804 463 l 2
 689 463 683 463 683 465 c 0
 684 466 685 474 688 484 c 0
 692 500 692 502 691 508 c 0
 690 516 685 526 679 532 c 0
 672 540 668 540 641 543 c 0
 608 546 468 547 450 544 c 0
 426 540 407 531 388 512 c 0
 363 487 348 453 342 403 c 0
 338 378 339 365 339 308 c 0
 339 250 338 237 342 212 c 0
 348 161 363 127 388 102 c 0
 399 91 408 84 420 78 c 0
 439 70 445 69 511 68 c 0
 600 67 659 71 671 76 c 0
 676 79 683 88 687 94 c 0
 689 98 690 102 691 106 c 0
 692 112 692 114 688 131 c 0
 685 140 684 148 683 149 c 0
 683 151 689 151 804 151 c 2
 925 151 l 1
 925 129 l 2
 925 113 925 105 923 100 c 0
 918 75 899 52 869 36 c 0
 837 19 776 6 698 -1 c 0
 692 -1 691 -1 692 -3 c 0
 699 -22 699 -39 694 -56 c 0
 689 -71 678 -84 665 -90 c 0
 650 -97 662 -96 528 -97 c 0
 462 -97 411 -96 413 -96 c 0
 436 -92 454 -77 461 -56 c 0
 466 -41 466 -27 462 -12 c 0
 459 -5 459 -5 449 -5 c 0
 430 -5 389 -2 362 2 c 0
 262 15 192 45 155 91 c 0
 130 123 114 159 109 209 c 0
 105 234 106 247 106 308 c 0
 106 368 105 380 109 406 c 0
 117 472 142 521 185 552 c 0
 241 594 323 614 451 619 c 0
EndSplineSet
EndChar

StartChar: odieresis
Encoding: 246 246 99
Width: 1167
VWidth: 910
Flags: HW
LayerCount: 2
Fore
SplineSet
392 750 m 0
 434 754 484 748 512 737 c 0
 537 728 544 715 532 703 c 0
 514 685 450 673 394 678 c 0
 328 683 293 703 308 724 c 0
 318 737 351 746 392 750 c 0
719 750 m 0
 761 754 810 748 838 737 c 0
 863 728 870 715 858 703 c 0
 840 685 777 673 721 678 c 0
 655 683 619 703 634 724 c 0
 644 737 678 746 719 750 c 0
489 619 m 0
 520 620 645 620 675 619 c 0
 771 615 840 607 900 589 c 0
 945 576 980 561 1008 539 c 0
 1046 511 1071 467 1082 410 c 0
 1088 378 1090 357 1090 308 c 0
 1090 283 1090 261 1089 254 c 0
 1084 203 1075 170 1060 139 c 0
 1044 106 1022 83 990 63 c 0
 930 27 838 3 719 -3 c 0
 651 -7 517 -7 450 -3 c 0
 317 4 220 31 160 76 c 0
 122 104 97 148 86 205 c 0
 80 237 78 258 78 308 c 0
 78 333 78 353 79 360 c 0
 84 411 92 444 107 475 c 0
 121 501 138 523 160 539 c 0
 226 588 332 614 489 619 c 0
682 544 m 0
 669 545 536 546 515 545 c 0
 458 543 427 538 399 525 c 0
 352 502 324 456 315 381 c 0
 311 356 311 345 311 308 c 0
 311 270 311 258 315 233 c 0
 321 179 337 141 363 115 c 0
 391 87 426 75 488 70 c 0
 512 68 656 68 680 70 c 0
 742 75 777 87 805 115 c 0
 835 145 850 186 856 257 c 0
 858 273 858 342 856 358 c 0
 850 429 835 470 805 500 c 0
 778 527 743 539 682 544 c 0
EndSplineSet
EndChar

StartChar: udieresis
Encoding: 252 252 100
Width: 1034
VWidth: 910
Flags: HW
LayerCount: 2
Fore
SplineSet
326 750 m 0
 368 754 417 748 445 737 c 0
 470 728 477 715 465 703 c 0
 447 685 384 673 328 678 c 0
 262 683 226 703 241 724 c 0
 251 737 285 746 326 750 c 0
653 750 m 0
 695 754 744 748 772 737 c 0
 797 728 804 715 792 703 c 0
 774 685 710 673 654 678 c 0
 588 683 553 703 568 724 c 0
 578 737 612 746 653 750 c 0
110 440 m 2
 110 614 l 1
 227 614 l 1
 343 614 l 1
 343 441 l 2
 343 269 343 245 347 218 c 0
 352 164 366 127 391 101 c 0
 409 83 429 73 451 70 c 0
 463 68 550 68 579 69 c 0
 616 71 629 73 644 80 c 0
 650 84 654 86 660 92 c 0
 675 107 684 128 689 159 c 2
 691 172 l 1
 692 393 l 1
 692 614 l 1
 808 614 l 1
 925 614 l 1
 925 326 l 1
 925 37 l 1
 928 19 l 2
 929 9 929 0 929 0 c 1
 855 0 l 2
 774 1 770 1 745 6 c 0
 736 8 734 8 729 7 c 0
 696 2 650 -3 596 -5 c 0
 561 -6 448 -6 424 -4 c 0
 311 3 240 24 189 62 c 0
 144 95 121 144 114 215 c 0
 110 242 110 266 110 440 c 2
EndSplineSet
EndChar

StartChar: degree
Encoding: 176 176 101
Width: 861
VWidth: 910
Flags: HW
LayerCount: 2
Fore
SplineSet
350 818 m 0
 378 819 482 819 509 818 c 0
 591 815 649 806 698 791 c 0
 748 775 774 756 790 722 c 0
 802 700 806 679 806 649 c 0
 806 629 806 620 802 607 c 0
 791 561 768 534 724 516 c 0
 681 498 620 486 548 481 c 0
 489 477 373 477 314 481 c 0
 242 486 181 498 138 516 c 0
 104 531 86 547 72 575 c 0
 60 597 56 618 56 649 c 0
 56 668 56 677 60 691 c 0
 71 736 94 763 138 781 c 0
 187 803 258 814 350 818 c 0
509 744 m 0
 497 745 389 746 369 745 c 0
 332 743 320 738 308 721 c 0
 295 702 289 680 289 649 c 0
 289 617 295 595 308 576 c 0
 318 561 329 556 355 553 c 0
 371 551 491 551 508 553 c 0
 533 556 544 561 554 576 c 0
 567 595 573 617 573 649 c 0
 573 674 570 691 562 708 c 0
 550 733 538 740 509 744 c 0
EndSplineSet
EndChar

StartChar: grave
Encoding: 96 96 102
Width: 313
VWidth: 910
Flags: HW
LayerCount: 2
Fore
SplineSet
148 820 m 0
 161 821 189 821 202 820 c 0
 263 815 308 802 340 778 c 0
 367 757 383 724 391 671 c 0
 396 638 399 603 399 537 c 2
 399 494 l 1
 282 494 l 1
 166 494 l 1
 166 536 l 2
 166 600 163 636 158 668 c 0
 153 703 144 728 132 742 c 2
 128 746 l 1
 117 748 l 2
 78 753 48 763 42 776 c 0
 39 781 39 783 42 788 c 0
 47 800 71 811 106 816 c 0
 116 818 138 820 148 820 c 0
EndSplineSet
EndChar

StartChar: quotesingle
Encoding: 39 39 103
Width: 251
VWidth: 910
Flags: HW
LayerCount: 2
Fore
SplineSet
9 694 m 1
 9 819 l 1
 126 819 l 1
 242 819 l 1
 242 694 l 1
 242 568 l 1
 126 568 l 1
 9 568 l 1
 9 694 l 1
EndSplineSet
EndChar

StartChar: Aring
Encoding: 197 197 104
Width: 1167
VWidth: 910
Flags: HW
LayerCount: 2
Fore
SplineSet
549 1158 m 0
 565 1159 628 1158 642 1157 c 0
 713 1150 751 1128 765 1088 c 0
 772 1070 774 1050 774 1013 c 0
 774 975 772 956 765 938 c 0
 750 897 713 875 641 868 c 0
 618 866 550 866 527 868 c 0
 455 875 418 897 403 938 c 0
 396 956 394 975 394 1013 c 0
 394 1050 396 1070 403 1088 c 0
 418 1133 464 1154 549 1158 c 0
612 1115 m 2
 606 1118 l 1
 583 1118 l 1
 561 1118 l 1
 556 1115 l 2
 540 1107 529 1087 524 1060 c 0
 522 1045 522 980 524 965 c 0
 529 938 540 918 556 910 c 2
 562 907 l 1
 584 907 l 1
 606 907 l 1
 612 910 l 2
 628 918 639 938 644 965 c 0
 646 980 646 1045 644 1060 c 0
 639 1087 628 1107 612 1115 c 2
435 816 m 2
 436 819 l 1
 584 819 l 1
 732 819 l 1
 916 411 l 2
 1017 186 1100 1 1100 1 c 2
 1100 0 1048 0 983 0 c 2
 867 0 l 1
 817 137 l 1
 767 274 l 1
 584 274 l 1
 400 274 l 1
 350 137 l 1
 301 0 l 1
 185 0 l 2
 120 0 68 0 68 1 c 2
 68 1 432 811 435 816 c 2
663 562 m 0
 621 678 585 774 585 776 c 0
 584 779 579 764 506 563 c 0
 463 446 428 349 428 349 c 2
 428 348 498 348 584 348 c 0
 732 348 740 348 740 350 c 0
 740 351 705 446 663 562 c 0
EndSplineSet
EndChar

StartChar: AE
Encoding: 198 198 105
Width: 1419
VWidth: 910
Flags: HW
LayerCount: 2
Fore
SplineSet
347 411 m 2
 609 819 l 1
 973 819 l 1
 1336 819 l 1
 1336 783 l 1
 1336 745 l 1
 1112 745 l 1
 888 745 l 1
 888 596 l 1
 888 447 l 1
 1081 447 l 1
 1273 447 l 1
 1273 410 l 1
 1273 372 l 1
 1081 372 l 1
 888 372 l 1
 888 223 l 1
 888 74 l 1
 1112 74 l 1
 1336 74 l 1
 1336 37 l 1
 1336 0 l 1
 996 0 l 1
 655 0 l 1
 655 137 l 1
 655 274 l 1
 562 274 l 1
 469 274 l 1
 392 137 l 1
 316 1 l 1
 199 0 l 2
 102 0 83 0 84 1 c 0
 84 2 202 187 347 411 c 2
655 348 m 1
 655 479 l 1
 655 609 l 1
 583 479 l 1
 510 349 l 1
 583 348 l 1
 655 348 l 1
EndSplineSet
EndChar

StartChar: Oslash
Encoding: 216 216 106
Width: 1419
VWidth: 910
Flags: HW
LayerCount: 2
Fore
SplineSet
1087 818 m 2
 1113 840 l 1
 1166 787 l 2
 1213 740 1220 733 1232 725 c 0
 1292 680 1327 607 1337 505 c 0
 1341 474 1341 460 1341 410 c 0
 1341 352 1339 324 1334 289 c 0
 1320 200 1287 137 1232 95 c 0
 1179 56 1109 29 1015 13 c 0
 966 5 916 -1 844 -4 c 0
 809 -6 610 -6 575 -4 c 0
 503 -1 453 5 404 13 c 0
 386 16 365 20 360 22 c 0
 359 22 348 14 332 1 c 2
 307 -21 l 1
 253 32 l 2
 206 79 199 87 188 95 c 0
 127 140 92 212 82 315 c 0
 78 345 78 360 78 410 c 0
 78 468 80 496 85 531 c 0
 99 620 132 683 187 725 c 0
 240 764 310 790 404 806 c 0
 453 814 503 820 575 823 c 0
 610 825 809 825 844 823 c 0
 916 820 966 814 1015 806 c 0
 1033 803 1054 799 1059 797 c 0
 1060 797 1071 805 1087 818 c 2
829 749 m 0
 814 750 651 751 625 750 c 0
 520 748 464 735 417 706 c 0
 358 670 325 603 315 502 c 0
 311 471 311 457 311 410 c 0
 311 363 311 348 315 318 c 0
 317 293 322 263 327 246 c 0
 331 233 337 214 338 214 c 0
 339 214 967 722 968 723 c 0
 968 725 955 729 941 734 c 0
 912 742 879 746 829 749 c 0
1086 593 m 0
 1084 600 1081 605 1081 605 c 2
 1079 605 452 97 451 96 c 0
 451 94 464 91 478 86 c 0
 508 78 541 73 592 70 c 0
 620 68 799 68 827 70 c 0
 890 74 929 80 963 94 c 0
 1022 117 1059 155 1082 216 c 0
 1096 251 1103 290 1107 347 c 0
 1109 367 1109 452 1107 473 c 0
 1103 526 1098 558 1086 593 c 0
EndSplineSet
EndChar

StartChar: aring
Encoding: 229 229 107
Width: 1034
VWidth: 910
Flags: HW
LayerCount: 2
Fore
SplineSet
482 953 m 0
 498 954 561 953 575 952 c 0
 646 945 684 923 698 883 c 0
 705 865 707 845 707 808 c 0
 707 770 705 751 698 733 c 0
 683 692 646 671 574 664 c 0
 551 662 484 662 461 664 c 0
 389 671 352 692 337 733 c 0
 330 751 328 770 328 808 c 0
 328 845 330 865 337 883 c 0
 352 928 397 949 482 953 c 0
545 910 m 2
 540 913 l 1
 517 913 l 1
 494 913 l 1
 490 910 l 2
 474 902 463 883 458 856 c 0
 456 841 456 775 458 760 c 0
 463 733 474 713 490 705 c 2
 495 703 l 1
 517 703 l 1
 540 703 l 1
 545 705 l 2
 561 713 572 733 577 760 c 0
 579 775 579 841 577 856 c 0
 572 883 561 902 545 910 c 2
421 619 m 0
 453 620 581 620 604 619 c 0
 693 616 756 607 808 591 c 0
 838 582 859 573 876 559 c 0
 894 545 909 523 917 498 c 0
 919 493 921 488 922 486 c 2
 925 482 l 1
 925 241 l 1
 925 0 l 1
 852 0 l 2
 792 1 777 1 769 2 c 0
 755 4 744 5 735 8 c 2
 728 10 l 1
 716 8 l 2
 688 3 652 -2 612 -4 c 0
 585 -6 445 -6 417 -4 c 0
 328 1 267 12 217 32 c 0
 185 45 161 60 146 80 c 0
 129 102 117 131 112 167 c 0
 110 183 110 227 112 243 c 0
 116 268 121 285 129 303 c 0
 139 323 151 337 166 350 c 0
 207 382 281 404 380 411 c 0
 411 414 431 414 480 415 c 0
 532 415 545 416 572 411 c 0
 597 407 612 409 642 416 c 0
 660 421 665 423 671 429 c 0
 680 437 686 448 690 461 c 0
 691 466 691 466 688 477 c 0
 687 483 685 493 683 498 c 0
 677 514 663 531 652 536 c 0
 634 544 598 547 487 546 c 0
 417 545 395 545 371 542 c 0
 357 541 355 539 350 533 c 0
 348 531 347 529 346 527 c 0
 342 520 343 517 347 499 c 0
 350 489 351 481 352 480 c 0
 352 478 346 478 231 478 c 2
 110 478 l 1
 110 500 l 2
 110 525 112 528 117 540 c 0
 128 562 153 579 191 592 c 0
 238 607 318 617 421 619 c 0
508 340 m 0
 475 344 426 340 407 334 c 0
 372 323 351 293 345 237 c 0
 343 224 343 186 345 173 c 0
 348 150 353 133 359 118 c 0
 373 90 392 76 424 72 c 0
 439 69 470 68 516 68 c 0
 578 68 597 71 613 76 c 0
 649 89 674 119 684 167 c 0
 690 194 692 223 692 290 c 2
 692 340 l 1
 686 340 l 1
 650 335 616 335 581 335 c 0
 550 336 537 337 508 340 c 0
EndSplineSet
EndChar

StartChar: ae
Encoding: 230 230 108
Width: 1159
VWidth: 910
Flags: HW
LayerCount: 2
Fore
SplineSet
266 613 m 0
 290 614 399 614 418 613 c 0
 490 610 538 604 584 590 c 2
 597 586 l 1
 611 590 l 2
 649 603 688 609 745 613 c 0
 755 614 781 613 815 613 c 0
 849 613 874 614 885 613 c 0
 982 607 1045 588 1090 555 c 0
 1130 525 1154 474 1161 405 c 0
 1165 379 1165 366 1166 312 c 2
 1166 258 l 1
 931 258 l 2
 708 258 696 258 696 256 c 0
 696 250 698 215 699 208 c 0
 702 182 708 153 715 137 c 0
 730 99 756 72 782 69 c 0
 792 68 881 68 896 70 c 0
 911 72 912 72 917 77 c 0
 926 85 931 99 933 113 c 0
 933 118 933 121 929 136 c 0
 926 145 925 153 924 154 c 0
 924 156 930 156 1045 156 c 2
 1166 156 l 1
 1166 130 l 2
 1165 105 1165 103 1163 96 c 0
 1156 72 1142 55 1122 41 c 0
 1112 34 1106 30 1092 25 c 0
 1051 10 996 1 917 -4 c 0
 888 -6 763 -6 740 -4 c 0
 682 0 634 9 600 21 c 2
 593 24 l 1
 583 18 l 2
 552 5 512 -4 472 -9 c 0
 447 -13 436 -13 403 -13 c 0
 367 -13 352 -12 322 -8 c 0
 313 -6 300 -5 290 -5 c 0
 203 -1 141 7 93 27 c 0
 16 57 -12 104 -12 205 c 0
 -12 274 1 315 31 345 c 0
 66 380 133 403 226 411 c 0
 254 414 269 414 312 415 c 0
 357 415 374 415 395 411 c 2
 406 410 l 1
 414 411 l 2
 419 413 426 415 431 417 c 0
 437 420 440 420 445 425 c 0
 451 432 455 439 459 450 c 0
 463 460 463 469 460 484 c 0
 453 513 440 531 422 536 c 0
 416 539 412 539 397 540 c 0
 374 541 272 541 253 539 c 2
 240 538 l 1
 237 534 l 2
 232 530 228 521 227 516 c 0
 227 513 227 508 230 495 c 0
 233 485 235 477 236 476 c 0
 236 474 230 474 115 474 c 2
 -6 474 l 1
 -6 496 l 2
 -6 514 -7 519 -5 524 c 0
 -2 537 7 551 17 560 c 0
 23 566 38 575 47 580 c 0
 89 600 162 610 266 613 c 0
845 540 m 0
 836 541 793 541 784 540 c 0
 761 537 736 514 721 482 c 0
 706 450 699 413 696 347 c 2
 696 331 l 1
 815 331 l 1
 933 331 l 1
 933 347 l 2
 930 402 926 433 916 463 c 0
 902 506 873 536 845 540 c 0
335 340 m 0
 318 342 311 341 294 340 c 0
 277 339 267 335 254 324 c 0
 232 303 221 265 221 205 c 0
 221 137 235 95 265 77 c 0
 278 70 289 68 335 68 c 0
 360 68 372 68 390 66 c 2
 400 65 l 1
 405 67 l 2
 420 74 434 86 440 95 c 0
 455 116 460 142 463 191 c 0
 464 214 464 211 463 281 c 2
 463 339 l 1
 455 338 l 2
 450 337 436 337 421 336 c 0
 391 336 364 337 335 340 c 0
EndSplineSet
EndChar

StartChar: oslash
Encoding: 248 248 109
Width: 1167
VWidth: 910
Flags: HW
LayerCount: 2
Fore
SplineSet
844 621 m 1
 862 635 l 1
 887 611 l 1
 911 586 l 1
 921 583 l 2
 955 571 984 557 1007 540 c 0
 1030 523 1046 502 1060 475 c 0
 1075 444 1084 411 1089 360 c 0
 1090 353 1090 333 1090 308 c 0
 1090 283 1090 261 1089 254 c 0
 1084 203 1075 170 1060 139 c 0
 1044 106 1022 83 990 63 c 0
 937 31 860 9 761 1 c 0
 710 -4 670 -5 584 -5 c 0
 478 -5 419 -3 362 5 c 2
 342 8 l 1
 324 -6 l 1
 307 -21 l 1
 282 4 l 1
 258 28 l 1
 248 31 l 2
 213 43 184 58 161 75 c 0
 138 92 121 112 107 139 c 0
 92 170 84 203 79 254 c 0
 77 270 77 344 79 360 c 0
 84 411 92 444 107 475 c 0
 123 508 145 532 177 552 c 0
 230 584 308 605 407 613 c 0
 458 618 497 620 584 620 c 0
 690 620 749 617 806 609 c 2
 826 606 l 1
 844 621 l 1
682 544 m 0
 670 545 535 546 515 545 c 0
 458 543 427 538 399 525 c 0
 352 502 324 456 315 381 c 0
 311 356 311 345 311 308 c 0
 311 271 311 257 315 233 c 0
 316 221 319 202 320 200 c 0
 320 199 392 257 530 368 c 0
 644 460 738 535 738 536 c 0
 738 538 705 542 682 544 c 0
850 402 m 0
 849 407 847 413 847 414 c 0
 847 415 776 358 639 248 c 0
 524 155 431 79 431 78 c 0
 430 76 463 72 489 70 c 0
 512 68 657 68 680 70 c 0
 721 73 745 78 769 89 c 0
 816 112 844 158 853 233 c 0
 857 258 857 270 857 307 c 0
 857 352 855 373 850 402 c 0
EndSplineSet
EndChar
